<svg width="230" height="319" viewBox="0 0 230 319" fill="none" xmlns="http://www.w3.org/2000/svg">
<path d="M28.284 202.182C27.3133 202.182 26.5013 201.944 25.848 201.468C25.204 200.992 24.7653 200.301 24.532 199.396L26.128 198.934C26.3053 199.522 26.5573 199.956 26.884 200.236C27.2107 200.507 27.6773 200.642 28.284 200.642C28.8533 200.642 29.3107 200.521 29.656 200.278C30.0107 200.035 30.188 199.69 30.188 199.242C30.188 198.887 30.048 198.593 29.768 198.36C29.488 198.127 28.9887 197.949 28.27 197.828C27.122 197.613 26.2587 197.273 25.68 196.806C25.1013 196.339 24.812 195.7 24.812 194.888C24.812 194.328 24.9567 193.829 25.246 193.39C25.5447 192.951 25.9553 192.611 26.478 192.368C27.0007 192.116 27.598 191.99 28.27 191.99C29.166 191.99 29.908 192.223 30.496 192.69C31.084 193.157 31.4853 193.815 31.7 194.664L30.104 195.112C29.964 194.58 29.7493 194.183 29.46 193.922C29.18 193.661 28.7833 193.53 28.27 193.53C27.738 193.53 27.3133 193.647 26.996 193.88C26.6787 194.113 26.52 194.449 26.52 194.888C26.52 195.252 26.6787 195.527 26.996 195.714C27.3227 195.901 27.85 196.069 28.578 196.218C29.7167 196.442 30.552 196.797 31.084 197.282C31.6253 197.758 31.896 198.411 31.896 199.242C31.896 199.821 31.7373 200.334 31.42 200.782C31.1027 201.23 30.6687 201.575 30.118 201.818C29.5673 202.061 28.956 202.182 28.284 202.182ZM33.3179 195.014H34.9979V202H33.3179V195.014ZM34.1299 194.062C33.8592 194.062 33.6259 193.964 33.4299 193.768C33.2432 193.572 33.1499 193.339 33.1499 193.068C33.1499 192.797 33.2432 192.564 33.4299 192.368C33.6259 192.172 33.8592 192.074 34.1299 192.074C34.4005 192.074 34.6339 192.172 34.8299 192.368C35.0352 192.564 35.1379 192.797 35.1379 193.068C35.1379 193.339 35.0352 193.572 34.8299 193.768C34.6339 193.964 34.4005 194.062 34.1299 194.062ZM39.9685 204.996C39.0725 204.996 38.3539 204.791 37.8125 204.38C37.2805 203.969 36.9212 203.419 36.7345 202.728L38.3025 202.378C38.3865 202.751 38.5639 203.041 38.8345 203.246C39.1145 203.461 39.4925 203.568 39.9685 203.568C40.5659 203.568 41.0279 203.409 41.3545 203.092C41.6905 202.784 41.8585 202.341 41.8585 201.762V200.908C41.6905 201.197 41.4199 201.445 41.0465 201.65C40.6825 201.846 40.2532 201.944 39.7585 201.944C39.1145 201.944 38.5405 201.79 38.0365 201.482C37.5325 201.174 37.1359 200.749 36.8465 200.208C36.5665 199.667 36.4265 199.06 36.4265 198.388C36.4265 197.725 36.5665 197.123 36.8465 196.582C37.1359 196.031 37.5325 195.602 38.0365 195.294C38.5499 194.977 39.1192 194.818 39.7445 194.818C40.2579 194.818 40.6919 194.921 41.0465 195.126C41.4105 195.331 41.6812 195.574 41.8585 195.854L42.1665 195.014H43.5385V201.734C43.5385 202.723 43.2212 203.512 42.5865 204.1C41.9612 204.697 41.0885 204.996 39.9685 204.996ZM39.9965 200.432C40.5379 200.432 40.9812 200.245 41.3265 199.872C41.6812 199.499 41.8585 199.004 41.8585 198.388C41.8585 197.763 41.6812 197.263 41.3265 196.89C40.9812 196.517 40.5332 196.33 39.9825 196.33C39.4319 196.33 38.9792 196.517 38.6245 196.89C38.2792 197.263 38.1065 197.763 38.1065 198.388C38.1065 199.004 38.2839 199.499 38.6385 199.872C38.9932 200.245 39.4459 200.432 39.9965 200.432ZM45.2248 195.014H46.6108L46.8488 195.854C47.3714 195.163 48.0808 194.818 48.9768 194.818C49.7888 194.818 50.4094 195.061 50.8388 195.546C51.2681 196.031 51.4828 196.773 51.4828 197.772V202H49.8028V197.996C49.8028 196.913 49.3501 196.372 48.4448 196.372C47.9968 196.372 47.6281 196.531 47.3388 196.848C47.0494 197.156 46.9048 197.595 46.9048 198.164V202H45.2248V195.014ZM63.35 202H61.964L61.726 201.16C61.2033 201.851 60.494 202.196 59.598 202.196C57.9273 202.196 57.092 201.207 57.092 199.228V195.014H58.772V199.004C58.772 199.592 58.8886 200.012 59.122 200.264C59.3646 200.507 59.7006 200.628 60.13 200.628C60.578 200.628 60.9466 200.474 61.236 200.166C61.5253 199.849 61.67 199.405 61.67 198.836V195.014H63.35V202ZM68.8713 194.818C69.506 194.818 70.08 194.986 70.5933 195.322C71.116 195.649 71.522 196.097 71.8113 196.666C72.11 197.226 72.2593 197.842 72.2593 198.514C72.2593 199.195 72.1146 199.816 71.8253 200.376C71.5453 200.936 71.1486 201.379 70.6353 201.706C70.122 202.033 69.5386 202.196 68.8853 202.196C68.3906 202.196 67.9566 202.103 67.5833 201.916C67.2193 201.729 66.93 201.496 66.7153 201.216V204.814H65.0353V195.014H66.4213L66.6453 195.868C66.86 195.579 67.154 195.331 67.5273 195.126C67.9006 194.921 68.3486 194.818 68.8713 194.818ZM68.6333 196.33C68.0733 196.33 67.6113 196.535 67.2473 196.946C66.8926 197.357 66.7153 197.879 66.7153 198.514C66.7153 199.149 66.8926 199.671 67.2473 200.082C67.6113 200.483 68.0733 200.684 68.6333 200.684C69.1933 200.684 69.6553 200.479 70.0193 200.068C70.3926 199.657 70.5793 199.139 70.5793 198.514C70.5793 197.879 70.3926 197.357 70.0193 196.946C69.6553 196.535 69.1933 196.33 68.6333 196.33ZM81.3948 194.818C82.0294 194.818 82.6034 194.986 83.1168 195.322C83.6394 195.649 84.0454 196.097 84.3348 196.666C84.6334 197.226 84.7828 197.842 84.7828 198.514C84.7828 199.195 84.6381 199.816 84.3488 200.376C84.0688 200.936 83.6721 201.379 83.1588 201.706C82.6454 202.033 82.0621 202.196 81.4088 202.196C80.9141 202.196 80.4801 202.103 80.1068 201.916C79.7428 201.729 79.4534 201.496 79.2388 201.216V204.814H77.5588V195.014H78.9448L79.1688 195.868C79.3834 195.579 79.6774 195.331 80.0508 195.126C80.4241 194.921 80.8721 194.818 81.3948 194.818ZM81.1568 196.33C80.5968 196.33 80.1348 196.535 79.7708 196.946C79.4161 197.357 79.2388 197.879 79.2388 198.514C79.2388 199.149 79.4161 199.671 79.7708 200.082C80.1348 200.483 80.5968 200.684 81.1568 200.684C81.7168 200.684 82.1788 200.479 82.5428 200.068C82.9161 199.657 83.1028 199.139 83.1028 198.514C83.1028 197.879 82.9161 197.357 82.5428 196.946C82.1788 196.535 81.7168 196.33 81.1568 196.33ZM87.4604 199.06C87.4884 199.359 87.5864 199.643 87.7544 199.914C87.9224 200.185 88.1464 200.404 88.4264 200.572C88.7157 200.731 89.0377 200.81 89.3924 200.81C89.8404 200.81 90.209 200.703 90.4984 200.488C90.797 200.273 90.9977 200.026 91.1004 199.746L92.5144 200.18C92.2997 200.777 91.9264 201.263 91.3944 201.636C90.8717 202.009 90.2044 202.196 89.3924 202.196C88.7297 202.196 88.1277 202.037 87.5864 201.72C87.0544 201.403 86.6297 200.964 86.3124 200.404C86.0044 199.844 85.8504 199.209 85.8504 198.5C85.8504 197.809 86.0044 197.184 86.3124 196.624C86.6297 196.064 87.0544 195.625 87.5864 195.308C88.1277 194.981 88.725 194.818 89.3784 194.818C90.041 194.818 90.6197 194.972 91.1144 195.28C91.6184 195.579 92.0057 195.999 92.2764 196.54C92.547 197.081 92.6824 197.707 92.6824 198.416V199.06H87.4604ZM91.1984 197.772C91.1797 197.539 91.1004 197.301 90.9604 197.058C90.8204 196.815 90.615 196.615 90.3444 196.456C90.083 196.288 89.7657 196.204 89.3924 196.204C88.8604 196.204 88.4264 196.358 88.0904 196.666C87.7637 196.965 87.5584 197.333 87.4744 197.772H91.1984ZM94.0607 195.014H95.4467L95.6847 195.854C96.2074 195.163 96.9167 194.818 97.8127 194.818C98.6247 194.818 99.2454 195.061 99.6747 195.546C100.104 196.031 100.319 196.773 100.319 197.772V202H98.6387V197.996C98.6387 196.913 98.186 196.372 97.2807 196.372C96.8327 196.372 96.464 196.531 96.1747 196.848C95.8854 197.156 95.7407 197.595 95.7407 198.164V202H94.0607V195.014ZM105.084 202.196C104.449 202.196 103.871 202.033 103.348 201.706C102.835 201.37 102.429 200.922 102.13 200.362C101.841 199.793 101.696 199.172 101.696 198.5C101.696 197.819 101.841 197.198 102.13 196.638C102.419 196.078 102.821 195.635 103.334 195.308C103.847 194.981 104.426 194.818 105.07 194.818C105.565 194.818 105.994 194.911 106.358 195.098C106.731 195.285 107.025 195.518 107.24 195.798V192.2H108.92V202H107.534L107.31 201.146C107.095 201.435 106.801 201.683 106.428 201.888C106.055 202.093 105.607 202.196 105.084 202.196ZM105.322 200.684C105.882 200.684 106.344 200.479 106.708 200.068C107.072 199.657 107.254 199.135 107.254 198.5C107.254 197.865 107.072 197.347 106.708 196.946C106.344 196.535 105.882 196.33 105.322 196.33C104.958 196.33 104.627 196.423 104.328 196.61C104.029 196.797 103.796 197.058 103.628 197.394C103.46 197.721 103.376 198.089 103.376 198.5C103.376 198.92 103.46 199.298 103.628 199.634C103.796 199.961 104.029 200.217 104.328 200.404C104.627 200.591 104.958 200.684 105.322 200.684ZM110.66 195.014H112.34V202H110.66V195.014ZM111.472 194.062C111.201 194.062 110.968 193.964 110.772 193.768C110.585 193.572 110.492 193.339 110.492 193.068C110.492 192.797 110.585 192.564 110.772 192.368C110.968 192.172 111.201 192.074 111.472 192.074C111.742 192.074 111.976 192.172 112.172 192.368C112.377 192.564 112.48 192.797 112.48 193.068C112.48 193.339 112.377 193.572 112.172 193.768C111.976 193.964 111.742 194.062 111.472 194.062ZM114.076 195.014H115.462L115.7 195.854C116.223 195.163 116.932 194.818 117.828 194.818C118.64 194.818 119.261 195.061 119.69 195.546C120.12 196.031 120.334 196.773 120.334 197.772V202H118.654V197.996C118.654 196.913 118.202 196.372 117.296 196.372C116.848 196.372 116.48 196.531 116.19 196.848C115.901 197.156 115.756 197.595 115.756 198.164V202H114.076V195.014ZM125.254 204.996C124.358 204.996 123.639 204.791 123.098 204.38C122.566 203.969 122.206 203.419 122.02 202.728L123.588 202.378C123.672 202.751 123.849 203.041 124.12 203.246C124.4 203.461 124.778 203.568 125.254 203.568C125.851 203.568 126.313 203.409 126.64 203.092C126.976 202.784 127.144 202.341 127.144 201.762V200.908C126.976 201.197 126.705 201.445 126.332 201.65C125.968 201.846 125.538 201.944 125.044 201.944C124.4 201.944 123.826 201.79 123.322 201.482C122.818 201.174 122.421 200.749 122.132 200.208C121.852 199.667 121.712 199.06 121.712 198.388C121.712 197.725 121.852 197.123 122.132 196.582C122.421 196.031 122.818 195.602 123.322 195.294C123.835 194.977 124.404 194.818 125.03 194.818C125.543 194.818 125.977 194.921 126.332 195.126C126.696 195.331 126.966 195.574 127.144 195.854L127.452 195.014H128.824V201.734C128.824 202.723 128.506 203.512 127.872 204.1C127.246 204.697 126.374 204.996 125.254 204.996ZM125.282 200.432C125.823 200.432 126.266 200.245 126.612 199.872C126.966 199.499 127.144 199.004 127.144 198.388C127.144 197.763 126.966 197.263 126.612 196.89C126.266 196.517 125.818 196.33 125.268 196.33C124.717 196.33 124.264 196.517 123.91 196.89C123.564 197.263 123.392 197.763 123.392 198.388C123.392 199.004 123.569 199.499 123.924 199.872C124.278 200.245 124.731 200.432 125.282 200.432ZM135.876 204.394C135.39 203.703 134.966 202.784 134.602 201.636C134.247 200.488 134.07 199.209 134.07 197.8C134.07 196.391 134.252 195.117 134.616 193.978C134.98 192.839 135.409 191.925 135.904 191.234L137.22 192.102C136.781 192.718 136.417 193.511 136.128 194.482C135.838 195.453 135.694 196.568 135.694 197.828C135.694 199.069 135.843 200.175 136.142 201.146C136.44 202.117 136.814 202.915 137.262 203.54L135.876 204.394ZM139.856 194.104C139.613 194.263 139.291 194.412 138.89 194.552C138.488 194.683 138.129 194.767 137.812 194.804V193.082C138.11 193.035 138.446 192.933 138.82 192.774C139.202 192.606 139.548 192.415 139.856 192.2H141.564V202H139.856V194.104ZM147.487 199.522H143.091V198.248L147.361 192.2H149.181L149.195 198.066H150.329V199.522H149.195L149.181 202H147.473L147.487 199.522ZM147.487 198.066L147.473 194.566L144.953 198.066H147.487ZM150.963 203.526C151.411 202.901 151.784 202.103 152.083 201.132C152.382 200.161 152.531 199.055 152.531 197.814C152.531 196.554 152.386 195.439 152.097 194.468C151.808 193.497 151.444 192.704 151.005 192.088L152.321 191.22C152.816 191.911 153.245 192.825 153.609 193.964C153.973 195.103 154.155 196.377 154.155 197.786C154.155 199.195 153.973 200.474 153.609 201.622C153.254 202.77 152.834 203.689 152.349 204.38L150.963 203.526Z" fill="#7F7F7F"/>
<path d="M25.022 230.2H28.522C29.4833 230.2 30.2813 230.461 30.916 230.984C31.5507 231.497 31.868 232.272 31.868 233.308C31.868 233.989 31.714 234.568 31.406 235.044C31.1073 235.511 30.7107 235.861 30.216 236.094C29.7213 236.327 29.1847 236.444 28.606 236.444H26.73V240H25.022V230.2ZM28.396 234.904C28.984 234.904 29.4227 234.759 29.712 234.47C30.0107 234.171 30.16 233.784 30.16 233.308C30.16 232.832 30.006 232.454 29.698 232.174C29.3993 231.885 28.9607 231.74 28.382 231.74H26.73V234.904H28.396ZM34.058 237.06C34.086 237.359 34.184 237.643 34.352 237.914C34.52 238.185 34.744 238.404 35.024 238.572C35.3133 238.731 35.6353 238.81 35.99 238.81C36.438 238.81 36.8067 238.703 37.096 238.488C37.3947 238.273 37.5953 238.026 37.698 237.746L39.112 238.18C38.8973 238.777 38.524 239.263 37.992 239.636C37.4693 240.009 36.802 240.196 35.99 240.196C35.3273 240.196 34.7253 240.037 34.184 239.72C33.652 239.403 33.2273 238.964 32.91 238.404C32.602 237.844 32.448 237.209 32.448 236.5C32.448 235.809 32.602 235.184 32.91 234.624C33.2273 234.064 33.652 233.625 34.184 233.308C34.7253 232.981 35.3227 232.818 35.976 232.818C36.6387 232.818 37.2173 232.972 37.712 233.28C38.216 233.579 38.6033 233.999 38.874 234.54C39.1447 235.081 39.28 235.707 39.28 236.416V237.06H34.058ZM37.796 235.772C37.7773 235.539 37.698 235.301 37.558 235.058C37.418 234.815 37.2127 234.615 36.942 234.456C36.6807 234.288 36.3633 234.204 35.99 234.204C35.458 234.204 35.024 234.358 34.688 234.666C34.3613 234.965 34.156 235.333 34.072 235.772H37.796ZM40.6584 233.014H42.0444L42.2824 233.854C42.805 233.163 43.5144 232.818 44.4104 232.818C45.2224 232.818 45.843 233.061 46.2724 233.546C46.7017 234.031 46.9164 234.773 46.9164 235.772V240H45.2364V235.996C45.2364 234.913 44.7837 234.372 43.8784 234.372C43.4304 234.372 43.0617 234.531 42.7724 234.848C42.483 235.156 42.3384 235.595 42.3384 236.164V240H40.6584V233.014ZM51.6817 240.196C51.0471 240.196 50.4684 240.033 49.9457 239.706C49.4324 239.37 49.0264 238.922 48.7277 238.362C48.4384 237.793 48.2937 237.172 48.2937 236.5C48.2937 235.819 48.4384 235.198 48.7277 234.638C49.0171 234.078 49.4184 233.635 49.9317 233.308C50.4451 232.981 51.0237 232.818 51.6677 232.818C52.1624 232.818 52.5917 232.911 52.9557 233.098C53.3291 233.285 53.6231 233.518 53.8377 233.798V230.2H55.5177V240H54.1317L53.9077 239.146C53.6931 239.435 53.3991 239.683 53.0257 239.888C52.6524 240.093 52.2044 240.196 51.6817 240.196ZM51.9197 238.684C52.4797 238.684 52.9417 238.479 53.3057 238.068C53.6697 237.657 53.8517 237.135 53.8517 236.5C53.8517 235.865 53.6697 235.347 53.3057 234.946C52.9417 234.535 52.4797 234.33 51.9197 234.33C51.5557 234.33 51.2244 234.423 50.9257 234.61C50.6271 234.797 50.3937 235.058 50.2257 235.394C50.0577 235.721 49.9737 236.089 49.9737 236.5C49.9737 236.92 50.0577 237.298 50.2257 237.634C50.3937 237.961 50.6271 238.217 50.9257 238.404C51.2244 238.591 51.5557 238.684 51.9197 238.684ZM57.2573 233.014H58.9373V240H57.2573V233.014ZM58.0693 232.062C57.7987 232.062 57.5653 231.964 57.3693 231.768C57.1827 231.572 57.0893 231.339 57.0893 231.068C57.0893 230.797 57.1827 230.564 57.3693 230.368C57.5653 230.172 57.7987 230.074 58.0693 230.074C58.34 230.074 58.5733 230.172 58.7693 230.368C58.9747 230.564 59.0773 230.797 59.0773 231.068C59.0773 231.339 58.9747 231.572 58.7693 231.768C58.5733 231.964 58.34 232.062 58.0693 232.062ZM60.674 233.014H62.06L62.298 233.854C62.8207 233.163 63.53 232.818 64.426 232.818C65.238 232.818 65.8587 233.061 66.288 233.546C66.7173 234.031 66.932 234.773 66.932 235.772V240H65.252V235.996C65.252 234.913 64.7993 234.372 63.894 234.372C63.446 234.372 63.0773 234.531 62.788 234.848C62.4987 235.156 62.354 235.595 62.354 236.164V240H60.674V233.014ZM71.8513 242.996C70.9553 242.996 70.2367 242.791 69.6953 242.38C69.1633 241.969 68.804 241.419 68.6173 240.728L70.1853 240.378C70.2693 240.751 70.4467 241.041 70.7173 241.246C70.9973 241.461 71.3753 241.568 71.8513 241.568C72.4487 241.568 72.9107 241.409 73.2373 241.092C73.5733 240.784 73.7413 240.341 73.7413 239.762V238.908C73.5733 239.197 73.3027 239.445 72.9293 239.65C72.5653 239.846 72.136 239.944 71.6413 239.944C70.9973 239.944 70.4233 239.79 69.9193 239.482C69.4153 239.174 69.0187 238.749 68.7293 238.208C68.4493 237.667 68.3093 237.06 68.3093 236.388C68.3093 235.725 68.4493 235.123 68.7293 234.582C69.0187 234.031 69.4153 233.602 69.9193 233.294C70.4327 232.977 71.002 232.818 71.6273 232.818C72.1407 232.818 72.5747 232.921 72.9293 233.126C73.2933 233.331 73.564 233.574 73.7413 233.854L74.0493 233.014H75.4213V239.734C75.4213 240.723 75.104 241.512 74.4693 242.1C73.844 242.697 72.9713 242.996 71.8513 242.996ZM71.8793 238.432C72.4207 238.432 72.864 238.245 73.2093 237.872C73.564 237.499 73.7413 237.004 73.7413 236.388C73.7413 235.763 73.564 235.263 73.2093 234.89C72.864 234.517 72.416 234.33 71.8653 234.33C71.3147 234.33 70.862 234.517 70.5073 234.89C70.162 235.263 69.9893 235.763 69.9893 236.388C69.9893 237.004 70.1667 237.499 70.5213 237.872C70.876 238.245 71.3287 238.432 71.8793 238.432ZM83.0894 240.196C82.6507 240.196 82.2494 240.107 81.8854 239.93C81.5214 239.753 81.2321 239.501 81.0174 239.174C80.8027 238.847 80.6954 238.469 80.6954 238.04C80.6954 237.452 80.8961 236.957 81.2974 236.556C81.7081 236.145 82.4267 235.87 83.4534 235.73L84.9514 235.52V235.436C84.9514 234.587 84.5221 234.162 83.6634 234.162C83.2341 234.162 82.9074 234.26 82.6834 234.456C82.4687 234.643 82.3334 234.923 82.2774 235.296L80.7934 234.932C80.9894 234.223 81.3207 233.695 81.7874 233.35C82.2541 232.995 82.8981 232.818 83.7194 232.818C84.5594 232.818 85.2547 233.037 85.8054 233.476C86.3561 233.905 86.6314 234.549 86.6314 235.408V240H85.2174L85.0354 239.37C84.6434 239.921 83.9947 240.196 83.0894 240.196ZM83.5374 238.838C83.9387 238.838 84.2747 238.726 84.5454 238.502C84.8161 238.269 84.9514 237.951 84.9514 237.55V236.738L83.5654 236.948C83.1267 237.013 82.8047 237.125 82.5994 237.284C82.4034 237.433 82.3054 237.653 82.3054 237.942C82.3054 238.213 82.4127 238.432 82.6274 238.6C82.8514 238.759 83.1547 238.838 83.5374 238.838ZM91.4721 240.196C90.7815 240.196 90.1608 240.037 89.6101 239.72C89.0595 239.393 88.6301 238.95 88.3221 238.39C88.0141 237.821 87.8601 237.191 87.8601 236.5C87.8601 235.819 88.0141 235.198 88.3221 234.638C88.6301 234.069 89.0595 233.625 89.6101 233.308C90.1608 232.981 90.7815 232.818 91.4721 232.818C92.2375 232.818 92.9001 233.019 93.4601 233.42C94.0201 233.821 94.4075 234.353 94.6221 235.016L93.0961 235.534C92.9655 235.17 92.7601 234.885 92.4801 234.68C92.2001 234.475 91.8641 234.372 91.4721 234.372C90.9028 234.372 90.4361 234.573 90.0721 234.974C89.7175 235.366 89.5401 235.875 89.5401 236.5C89.5401 237.125 89.7175 237.639 90.0721 238.04C90.4361 238.441 90.9028 238.642 91.4721 238.642C91.8455 238.642 92.1675 238.549 92.4381 238.362C92.7181 238.166 92.9235 237.891 93.0541 237.536L94.5801 238.054C94.3375 238.707 93.9408 239.23 93.3901 239.622C92.8488 240.005 92.2095 240.196 91.4721 240.196ZM99.3061 240.196C98.6154 240.196 97.9948 240.037 97.4441 239.72C96.8934 239.393 96.4641 238.95 96.1561 238.39C95.8481 237.821 95.6941 237.191 95.6941 236.5C95.6941 235.819 95.8481 235.198 96.1561 234.638C96.4641 234.069 96.8934 233.625 97.4441 233.308C97.9948 232.981 98.6154 232.818 99.3061 232.818C100.071 232.818 100.734 233.019 101.294 233.42C101.854 233.821 102.241 234.353 102.456 235.016L100.93 235.534C100.799 235.17 100.594 234.885 100.314 234.68C100.034 234.475 99.6981 234.372 99.3061 234.372C98.7368 234.372 98.2701 234.573 97.9061 234.974C97.5514 235.366 97.3741 235.875 97.3741 236.5C97.3741 237.125 97.5514 237.639 97.9061 238.04C98.2701 238.441 98.7368 238.642 99.3061 238.642C99.6794 238.642 100.001 238.549 100.272 238.362C100.552 238.166 100.757 237.891 100.888 237.536L102.414 238.054C102.171 238.707 101.775 239.23 101.224 239.622C100.683 240.005 100.043 240.196 99.3061 240.196ZM107.154 240.196C106.463 240.196 105.843 240.033 105.292 239.706C104.741 239.379 104.307 238.936 103.99 238.376C103.682 237.807 103.528 237.181 103.528 236.5C103.528 235.819 103.682 235.198 103.99 234.638C104.307 234.078 104.741 233.635 105.292 233.308C105.852 232.981 106.473 232.818 107.154 232.818C107.845 232.818 108.465 232.981 109.016 233.308C109.567 233.635 110.001 234.078 110.318 234.638C110.635 235.198 110.794 235.819 110.794 236.5C110.794 237.181 110.635 237.807 110.318 238.376C110.001 238.936 109.567 239.379 109.016 239.706C108.465 240.033 107.845 240.196 107.154 240.196ZM107.154 238.642C107.714 238.642 108.181 238.441 108.554 238.04C108.927 237.629 109.114 237.116 109.114 236.5C109.114 235.884 108.927 235.375 108.554 234.974C108.181 234.573 107.714 234.372 107.154 234.372C106.585 234.372 106.118 234.573 105.754 234.974C105.39 235.375 105.208 235.884 105.208 236.5C105.208 237.125 105.39 237.639 105.754 238.04C106.118 238.441 106.585 238.642 107.154 238.642ZM118.42 240H117.034L116.796 239.16C116.274 239.851 115.564 240.196 114.668 240.196C112.998 240.196 112.162 239.207 112.162 237.228V233.014H113.842V237.004C113.842 237.592 113.959 238.012 114.192 238.264C114.435 238.507 114.771 238.628 115.2 238.628C115.648 238.628 116.017 238.474 116.306 238.166C116.596 237.849 116.74 237.405 116.74 236.836V233.014H118.42V240ZM120.106 233.014H121.492L121.73 233.854C122.252 233.163 122.962 232.818 123.858 232.818C124.67 232.818 125.29 233.061 125.72 233.546C126.149 234.031 126.364 234.773 126.364 235.772V240H124.684V235.996C124.684 234.913 124.231 234.372 123.326 234.372C122.878 234.372 122.509 234.531 122.22 234.848C121.93 235.156 121.786 235.595 121.786 236.164V240H120.106V233.014ZM130.612 240.196C130.043 240.196 129.572 240.019 129.198 239.664C128.825 239.3 128.638 238.787 128.638 238.124V234.484H127.434V233.014H128.638V231.194H130.318V233.014H132.096V234.484H130.318V237.886C130.318 238.381 130.538 238.628 130.976 238.628C131.228 238.628 131.443 238.549 131.62 238.39L132.32 239.58C132.19 239.739 131.98 239.879 131.69 240C131.401 240.131 131.042 240.196 130.612 240.196ZM143.717 233.014L141.071 240H139.307L136.661 233.014H138.383L140.189 238.096L141.995 233.014H143.717ZM145.744 237.06C145.772 237.359 145.87 237.643 146.038 237.914C146.206 238.185 146.43 238.404 146.71 238.572C146.999 238.731 147.321 238.81 147.676 238.81C148.124 238.81 148.492 238.703 148.782 238.488C149.08 238.273 149.281 238.026 149.384 237.746L150.798 238.18C150.583 238.777 150.21 239.263 149.678 239.636C149.155 240.009 148.488 240.196 147.676 240.196C147.013 240.196 146.411 240.037 145.87 239.72C145.338 239.403 144.913 238.964 144.596 238.404C144.288 237.844 144.134 237.209 144.134 236.5C144.134 235.809 144.288 235.184 144.596 234.624C144.913 234.064 145.338 233.625 145.87 233.308C146.411 232.981 147.008 232.818 147.662 232.818C148.324 232.818 148.903 232.972 149.398 233.28C149.902 233.579 150.289 233.999 150.56 234.54C150.83 235.081 150.966 235.707 150.966 236.416V237.06H145.744ZM149.482 235.772C149.463 235.539 149.384 235.301 149.244 235.058C149.104 234.815 148.898 234.615 148.628 234.456C148.366 234.288 148.049 234.204 147.676 234.204C147.144 234.204 146.71 234.358 146.374 234.666C146.047 234.965 145.842 235.333 145.758 235.772H149.482ZM152.344 233.014H153.73L153.968 233.826C154.136 233.537 154.369 233.299 154.668 233.112C154.967 232.916 155.321 232.818 155.732 232.818C155.993 232.818 156.227 232.851 156.432 232.916C156.637 232.981 156.805 233.061 156.936 233.154L156.334 234.624C156.25 234.559 156.133 234.503 155.984 234.456C155.844 234.409 155.681 234.386 155.494 234.386C155.074 234.386 154.724 234.549 154.444 234.876C154.164 235.193 154.024 235.632 154.024 236.192V240H152.344V233.014ZM157.923 233.014H159.603V240H157.923V233.014ZM158.735 232.062C158.465 232.062 158.231 231.964 158.035 231.768C157.849 231.572 157.755 231.339 157.755 231.068C157.755 230.797 157.849 230.564 158.035 230.368C158.231 230.172 158.465 230.074 158.735 230.074C159.006 230.074 159.239 230.172 159.435 230.368C159.641 230.564 159.743 230.797 159.743 231.068C159.743 231.339 159.641 231.572 159.435 231.768C159.239 231.964 159.006 232.062 158.735 232.062ZM161.984 234.484H160.78V233.014H161.984V232.062C161.984 231.418 162.171 230.914 162.544 230.55C162.927 230.177 163.398 229.99 163.958 229.99C164.415 229.99 164.779 230.055 165.05 230.186C165.33 230.307 165.545 230.443 165.694 230.592L164.966 231.754C164.779 231.595 164.56 231.516 164.308 231.516C163.879 231.516 163.664 231.763 163.664 232.258V233.014H165.442V234.484H163.664V240H161.984V234.484ZM166.687 233.014H168.367V240H166.687V233.014ZM167.499 232.062C167.228 232.062 166.995 231.964 166.799 231.768C166.612 231.572 166.519 231.339 166.519 231.068C166.519 230.797 166.612 230.564 166.799 230.368C166.995 230.172 167.228 230.074 167.499 230.074C167.77 230.074 168.003 230.172 168.199 230.368C168.404 230.564 168.507 230.797 168.507 231.068C168.507 231.339 168.404 231.572 168.199 231.768C168.003 231.964 167.77 232.062 167.499 232.062ZM173.408 240.196C172.717 240.196 172.096 240.037 171.546 239.72C170.995 239.393 170.566 238.95 170.258 238.39C169.95 237.821 169.796 237.191 169.796 236.5C169.796 235.819 169.95 235.198 170.258 234.638C170.566 234.069 170.995 233.625 171.546 233.308C172.096 232.981 172.717 232.818 173.408 232.818C174.173 232.818 174.836 233.019 175.396 233.42C175.956 233.821 176.343 234.353 176.558 235.016L175.032 235.534C174.901 235.17 174.696 234.885 174.416 234.68C174.136 234.475 173.8 234.372 173.408 234.372C172.838 234.372 172.372 234.573 172.008 234.974C171.653 235.366 171.476 235.875 171.476 236.5C171.476 237.125 171.653 237.639 172.008 238.04C172.372 238.441 172.838 238.642 173.408 238.642C173.781 238.642 174.103 238.549 174.374 238.362C174.654 238.166 174.859 237.891 174.99 237.536L176.516 238.054C176.273 238.707 175.876 239.23 175.326 239.622C174.784 240.005 174.145 240.196 173.408 240.196ZM179.996 240.196C179.557 240.196 179.156 240.107 178.792 239.93C178.428 239.753 178.138 239.501 177.924 239.174C177.709 238.847 177.602 238.469 177.602 238.04C177.602 237.452 177.802 236.957 178.204 236.556C178.614 236.145 179.333 235.87 180.36 235.73L181.858 235.52V235.436C181.858 234.587 181.428 234.162 180.57 234.162C180.14 234.162 179.814 234.26 179.59 234.456C179.375 234.643 179.24 234.923 179.184 235.296L177.7 234.932C177.896 234.223 178.227 233.695 178.694 233.35C179.16 232.995 179.804 232.818 180.626 232.818C181.466 232.818 182.161 233.037 182.712 233.476C183.262 233.905 183.538 234.549 183.538 235.408V240H182.124L181.942 239.37C181.55 239.921 180.901 240.196 179.996 240.196ZM180.444 238.838C180.845 238.838 181.181 238.726 181.452 238.502C181.722 238.269 181.858 237.951 181.858 237.55V236.738L180.472 236.948C180.033 237.013 179.711 237.125 179.506 237.284C179.31 237.433 179.212 237.653 179.212 237.942C179.212 238.213 179.319 238.432 179.534 238.6C179.758 238.759 180.061 238.838 180.444 238.838ZM187.692 240.196C187.123 240.196 186.652 240.019 186.278 239.664C185.905 239.3 185.718 238.787 185.718 238.124V234.484H184.514V233.014H185.718V231.194H187.398V233.014H189.176V234.484H187.398V237.886C187.398 238.381 187.618 238.628 188.056 238.628C188.308 238.628 188.523 238.549 188.7 238.39L189.4 239.58C189.27 239.739 189.06 239.879 188.77 240C188.481 240.131 188.122 240.196 187.692 240.196ZM190.517 233.014H192.197V240H190.517V233.014ZM191.329 232.062C191.058 232.062 190.825 231.964 190.629 231.768C190.442 231.572 190.349 231.339 190.349 231.068C190.349 230.797 190.442 230.564 190.629 230.368C190.825 230.172 191.058 230.074 191.329 230.074C191.6 230.074 191.833 230.172 192.029 230.368C192.234 230.564 192.337 230.797 192.337 231.068C192.337 231.339 192.234 231.572 192.029 231.768C191.833 231.964 191.6 232.062 191.329 232.062ZM197.252 240.196C196.561 240.196 195.94 240.033 195.39 239.706C194.839 239.379 194.405 238.936 194.088 238.376C193.78 237.807 193.626 237.181 193.626 236.5C193.626 235.819 193.78 235.198 194.088 234.638C194.405 234.078 194.839 233.635 195.39 233.308C195.95 232.981 196.57 232.818 197.252 232.818C197.942 232.818 198.563 232.981 199.114 233.308C199.664 233.635 200.098 234.078 200.416 234.638C200.733 235.198 200.892 235.819 200.892 236.5C200.892 237.181 200.733 237.807 200.416 238.376C200.098 238.936 199.664 239.379 199.114 239.706C198.563 240.033 197.942 240.196 197.252 240.196ZM197.252 238.642C197.812 238.642 198.278 238.441 198.652 238.04C199.025 237.629 199.212 237.116 199.212 236.5C199.212 235.884 199.025 235.375 198.652 234.974C198.278 234.573 197.812 234.372 197.252 234.372C196.682 234.372 196.216 234.573 195.852 234.974C195.488 235.375 195.306 235.884 195.306 236.5C195.306 237.125 195.488 237.639 195.852 238.04C196.216 238.441 196.682 238.642 197.252 238.642ZM202.26 233.014H203.646L203.884 233.854C204.407 233.163 205.116 232.818 206.012 232.818C206.824 232.818 207.445 233.061 207.874 233.546C208.303 234.031 208.518 234.773 208.518 235.772V240H206.838V235.996C206.838 234.913 206.385 234.372 205.48 234.372C205.032 234.372 204.663 234.531 204.374 234.848C204.085 235.156 203.94 235.595 203.94 236.164V240H202.26V233.014ZM215.569 242.394C215.084 241.703 214.659 240.784 214.295 239.636C213.94 238.488 213.763 237.209 213.763 235.8C213.763 234.391 213.945 233.117 214.309 231.978C214.673 230.839 215.102 229.925 215.597 229.234L216.913 230.102C216.474 230.718 216.11 231.511 215.821 232.482C215.532 233.453 215.387 234.568 215.387 235.828C215.387 237.069 215.536 238.175 215.835 239.146C216.134 240.117 216.507 240.915 216.955 241.54L215.569 242.394ZM221.229 240.196C220.604 240.196 220.03 240.07 219.507 239.818C218.994 239.566 218.583 239.23 218.275 238.81C217.967 238.39 217.804 237.933 217.785 237.438L219.367 236.962C219.395 237.466 219.582 237.867 219.927 238.166C220.282 238.465 220.716 238.614 221.229 238.614C221.752 238.614 222.181 238.451 222.517 238.124C222.862 237.788 223.04 237.359 223.049 236.836C223.04 236.313 222.862 235.889 222.517 235.562C222.172 235.226 221.738 235.058 221.215 235.058C220.879 235.058 220.576 235.123 220.305 235.254C220.034 235.375 219.82 235.534 219.661 235.73L218.191 235.184L218.695 230.2H224.085V231.796H220.165L219.927 233.938C220.067 233.845 220.263 233.765 220.515 233.7C220.776 233.625 221.056 233.588 221.355 233.588C222.008 233.588 222.592 233.723 223.105 233.994C223.618 234.255 224.02 234.633 224.309 235.128C224.598 235.613 224.743 236.178 224.743 236.822C224.743 237.494 224.589 238.087 224.281 238.6C223.973 239.104 223.553 239.496 223.021 239.776C222.489 240.056 221.892 240.196 221.229 240.196ZM225.57 241.526C226.018 240.901 226.392 240.103 226.69 239.132C226.989 238.161 227.138 237.055 227.138 235.814C227.138 234.554 226.994 233.439 226.704 232.468C226.415 231.497 226.051 230.704 225.612 230.088L226.928 229.22C227.423 229.911 227.852 230.825 228.216 231.964C228.58 233.103 228.762 234.377 228.762 235.786C228.762 237.195 228.58 238.474 228.216 239.622C227.862 240.77 227.442 241.689 226.956 242.38L225.57 241.526Z" fill="#7F7F7F"/>
<path d="M29.712 276.182C28.704 276.182 27.8173 275.953 27.052 275.496C26.296 275.029 25.7127 274.409 25.302 273.634C24.9007 272.859 24.7 272.01 24.7 271.086C24.7 270.162 24.9007 269.313 25.302 268.538C25.7127 267.763 26.296 267.147 27.052 266.69C27.808 266.223 28.6947 265.99 29.712 265.99C30.7107 265.99 31.588 266.223 32.344 266.69C33.1 267.147 33.6833 267.763 34.094 268.538C34.5047 269.313 34.71 270.162 34.71 271.086C34.71 272.01 34.5047 272.859 34.094 273.634C33.6833 274.409 33.1 275.029 32.344 275.496C31.588 275.953 30.7107 276.182 29.712 276.182ZM29.712 274.6C30.3747 274.6 30.9533 274.451 31.448 274.152C31.9427 273.844 32.3253 273.424 32.596 272.892C32.8667 272.36 33.002 271.758 33.002 271.086C33.002 270.423 32.8667 269.826 32.596 269.294C32.3253 268.753 31.938 268.333 31.434 268.034C30.9393 267.726 30.3653 267.572 29.712 267.572C29.0493 267.572 28.466 267.726 27.962 268.034C27.4673 268.333 27.0847 268.748 26.814 269.28C26.5433 269.812 26.408 270.414 26.408 271.086C26.408 271.758 26.5433 272.36 26.814 272.892C27.0847 273.424 27.4673 273.844 27.962 274.152C28.466 274.451 29.0493 274.6 29.712 274.6ZM40.092 268.818C40.7267 268.818 41.3007 268.986 41.814 269.322C42.3367 269.649 42.7427 270.097 43.032 270.666C43.3307 271.226 43.48 271.842 43.48 272.514C43.48 273.195 43.3353 273.816 43.046 274.376C42.766 274.936 42.3693 275.379 41.856 275.706C41.3427 276.033 40.7593 276.196 40.106 276.196C39.6113 276.196 39.1773 276.103 38.804 275.916C38.44 275.729 38.1507 275.496 37.936 275.216V278.814H36.256V269.014H37.642L37.866 269.868C38.0807 269.579 38.3747 269.331 38.748 269.126C39.1213 268.921 39.5693 268.818 40.092 268.818ZM39.854 270.33C39.294 270.33 38.832 270.535 38.468 270.946C38.1133 271.357 37.936 271.879 37.936 272.514C37.936 273.149 38.1133 273.671 38.468 274.082C38.832 274.483 39.294 274.684 39.854 274.684C40.414 274.684 40.876 274.479 41.24 274.068C41.6133 273.657 41.8 273.139 41.8 272.514C41.8 271.879 41.6133 271.357 41.24 270.946C40.876 270.535 40.414 270.33 39.854 270.33ZM47.3369 276.196C46.7676 276.196 46.2962 276.019 45.9229 275.664C45.5496 275.3 45.3629 274.787 45.3629 274.124V270.484H44.1589V269.014H45.3629V267.194H47.0429V269.014H48.8209V270.484H47.0429V273.886C47.0429 274.381 47.2622 274.628 47.7009 274.628C47.9529 274.628 48.1676 274.549 48.3449 274.39L49.0449 275.58C48.9142 275.739 48.7042 275.879 48.4149 276C48.1256 276.131 47.7662 276.196 47.3369 276.196ZM57.3475 276.196C56.6568 276.196 56.0361 276.033 55.4855 275.706C54.9348 275.379 54.5008 274.936 54.1835 274.376C53.8755 273.807 53.7215 273.181 53.7215 272.5C53.7215 271.819 53.8755 271.198 54.1835 270.638C54.5008 270.078 54.9348 269.635 55.4855 269.308C56.0455 268.981 56.6661 268.818 57.3475 268.818C58.0381 268.818 58.6588 268.981 59.2095 269.308C59.7601 269.635 60.1941 270.078 60.5115 270.638C60.8288 271.198 60.9875 271.819 60.9875 272.5C60.9875 273.181 60.8288 273.807 60.5115 274.376C60.1941 274.936 59.7601 275.379 59.2095 275.706C58.6588 276.033 58.0381 276.196 57.3475 276.196ZM57.3475 274.642C57.9075 274.642 58.3741 274.441 58.7475 274.04C59.1208 273.629 59.3075 273.116 59.3075 272.5C59.3075 271.884 59.1208 271.375 58.7475 270.974C58.3741 270.573 57.9075 270.372 57.3475 270.372C56.7781 270.372 56.3115 270.573 55.9475 270.974C55.5835 271.375 55.4015 271.884 55.4015 272.5C55.4015 273.125 55.5835 273.639 55.9475 274.04C56.3115 274.441 56.7781 274.642 57.3475 274.642ZM68.6136 276H67.2276L66.9896 275.16C66.467 275.851 65.7576 276.196 64.8616 276.196C63.191 276.196 62.3556 275.207 62.3556 273.228V269.014H64.0356V273.004C64.0356 273.592 64.1523 274.012 64.3856 274.264C64.6283 274.507 64.9643 274.628 65.3936 274.628C65.8416 274.628 66.2103 274.474 66.4996 274.166C66.789 273.849 66.9336 273.405 66.9336 272.836V269.014H68.6136V276ZM72.917 276.196C72.3477 276.196 71.8763 276.019 71.503 275.664C71.1297 275.3 70.943 274.787 70.943 274.124V270.484H69.739V269.014H70.943V267.194H72.623V269.014H74.401V270.484H72.623V273.886C72.623 274.381 72.8423 274.628 73.281 274.628C73.533 274.628 73.7477 274.549 73.925 274.39L74.625 275.58C74.4943 275.739 74.2843 275.879 73.995 276C73.7057 276.131 73.3463 276.196 72.917 276.196ZM81.0515 278.394C80.5662 277.703 80.1415 276.784 79.7775 275.636C79.4229 274.488 79.2455 273.209 79.2455 271.8C79.2455 270.391 79.4275 269.117 79.7915 267.978C80.1555 266.839 80.5849 265.925 81.0795 265.234L82.3955 266.102C81.9569 266.718 81.5929 267.511 81.3035 268.482C81.0142 269.453 80.8695 270.568 80.8695 271.828C80.8695 273.069 81.0189 274.175 81.3175 275.146C81.6162 276.117 81.9895 276.915 82.4375 277.54L81.0515 278.394ZM86.7114 276.196C86.086 276.196 85.512 276.07 84.9894 275.818C84.476 275.566 84.0654 275.23 83.7574 274.81C83.4494 274.39 83.286 273.933 83.2674 273.438L84.8494 272.962C84.8774 273.466 85.064 273.867 85.4094 274.166C85.764 274.465 86.198 274.614 86.7114 274.614C87.234 274.614 87.6634 274.451 87.9994 274.124C88.3447 273.788 88.522 273.359 88.5314 272.836C88.522 272.313 88.3447 271.889 87.9994 271.562C87.654 271.226 87.22 271.058 86.6974 271.058C86.3614 271.058 86.058 271.123 85.7874 271.254C85.5167 271.375 85.302 271.534 85.1434 271.73L83.6734 271.184L84.1774 266.2H89.5674V267.796H85.6474L85.4094 269.938C85.5494 269.845 85.7454 269.765 85.9974 269.7C86.2587 269.625 86.5387 269.588 86.8374 269.588C87.4907 269.588 88.074 269.723 88.5874 269.994C89.1007 270.255 89.502 270.633 89.7914 271.128C90.0807 271.613 90.2254 272.178 90.2254 272.822C90.2254 273.494 90.0714 274.087 89.7634 274.6C89.4554 275.104 89.0354 275.496 88.5034 275.776C87.9714 276.056 87.374 276.196 86.7114 276.196ZM91.0528 277.526C91.5008 276.901 91.8741 276.103 92.1728 275.132C92.4714 274.161 92.6208 273.055 92.6208 271.814C92.6208 270.554 92.4761 269.439 92.1868 268.468C91.8974 267.497 91.5334 266.704 91.0948 266.088L92.4108 265.22C92.9054 265.911 93.3348 266.825 93.6988 267.964C94.0628 269.103 94.2448 270.377 94.2448 271.786C94.2448 273.195 94.0628 274.474 93.6988 275.622C93.3441 276.77 92.9241 277.689 92.4388 278.38L91.0528 277.526Z" fill="#7F7F7F"/>
<mask id="path-4-outside-1" maskUnits="userSpaceOnUse" x="27" y="-1" width="86" height="136" fill="black">
<rect fill="white" x="27" y="-1" width="86" height="136"/>
<path d="M112 1C96.6918 1 81.6818 5.23358 68.6298 13.2326C55.5777 21.2317 44.9921 32.6845 38.0434 46.3248C31.0947 59.965 28.0537 75.2613 29.2567 90.5221C30.4596 105.783 35.8595 120.414 44.8595 132.797L112 84V1Z"/>
</mask>
<path d="M112 1C96.6918 1 81.6818 5.23358 68.6298 13.2326C55.5777 21.2317 44.9921 32.6845 38.0434 46.3248C31.0947 59.965 28.0537 75.2613 29.2567 90.5221C30.4596 105.783 35.8595 120.414 44.8595 132.797L112 84V1Z" fill="#68D898"/>
<path d="M112 1C96.6918 1 81.6818 5.23358 68.6298 13.2326C55.5777 21.2317 44.9921 32.6845 38.0434 46.3248C31.0947 59.965 28.0537 75.2613 29.2567 90.5221C30.4596 105.783 35.8595 120.414 44.8595 132.797L112 84V1Z" stroke="white" stroke-width="2" mask="url(#path-4-outside-1)"/>
<mask id="path-5-outside-2" maskUnits="userSpaceOnUse" x="37" y="82" width="151" height="87" fill="black">
<rect fill="white" x="37" y="82" width="151" height="87"/>
<path d="M38.6315 122.808C45.7891 136.34 56.5496 147.629 69.7231 155.426C82.8966 163.223 97.9699 167.226 113.276 166.99C128.583 166.755 143.526 162.291 156.453 154.092C169.381 145.893 179.789 134.279 186.527 120.534L112 84L38.6315 122.808Z"/>
</mask>
<path d="M38.6315 122.808C45.7891 136.34 56.5496 147.629 69.7231 155.426C82.8966 163.223 97.9699 167.226 113.276 166.99C128.583 166.755 143.526 162.291 156.453 154.092C169.381 145.893 179.789 134.279 186.527 120.534L112 84L38.6315 122.808Z" fill="#EAD681"/>
<path d="M38.6315 122.808C45.7891 136.34 56.5496 147.629 69.7231 155.426C82.8966 163.223 97.9699 167.226 113.276 166.99C128.583 166.755 143.526 162.291 156.453 154.092C169.381 145.893 179.789 134.279 186.527 120.534L112 84L38.6315 122.808Z" stroke="white" stroke-width="2" mask="url(#path-5-outside-2)"/>
<mask id="path-6-outside-3" maskUnits="userSpaceOnUse" x="82" y="81" width="78" height="88" fill="black">
<rect fill="white" x="82" y="81" width="78" height="88"/>
<path d="M158.359 152.846C147.593 160.096 135.277 164.719 122.401 166.346C109.524 167.972 96.4453 166.556 84.2151 162.211L112 84L158.359 152.846Z"/>
</mask>
<path d="M158.359 152.846C147.593 160.096 135.277 164.719 122.401 166.346C109.524 167.972 96.4453 166.556 84.2151 162.211L112 84L158.359 152.846Z" fill="#EFA770"/>
<path d="M158.359 152.846C147.593 160.096 135.277 164.719 122.401 166.346C109.524 167.972 96.4453 166.556 84.2151 162.211L112 84L158.359 152.846Z" stroke="white" stroke-width="2" mask="url(#path-6-outside-3)"/>
<mask id="path-7-outside-4" maskUnits="userSpaceOnUse" x="111" y="0" width="86" height="155" fill="black">
<rect fill="white" x="111" width="86" height="155"/>
<path d="M112 1C129.819 1 147.165 6.73458 161.473 17.3557C175.78 27.9768 186.29 42.9205 191.447 59.9767C196.605 77.033 196.136 95.2963 190.111 112.066C184.086 128.835 172.823 143.22 157.99 153.094L112 84V1Z"/>
</mask>
<path d="M112 1C129.819 1 147.165 6.73458 161.473 17.3557C175.78 27.9768 186.29 42.9205 191.447 59.9767C196.605 77.033 196.136 95.2963 190.111 112.066C184.086 128.835 172.823 143.22 157.99 153.094L112 84V1Z" fill="#13C8F5"/>
<path d="M112 1C129.819 1 147.165 6.73458 161.473 17.3557C175.78 27.9768 186.29 42.9205 191.447 59.9767C196.605 77.033 196.136 95.2963 190.111 112.066C184.086 128.835 172.823 143.22 157.99 153.094L112 84V1Z" stroke="white" stroke-width="2" mask="url(#path-7-outside-4)"/>
<rect y="192" width="12" height="12" rx="6" fill="#13C8F5"/>
<rect y="192" width="12" height="12" rx="6" stroke="#13C8F5"/>
<rect y="230" width="12" height="12" rx="6" fill="#EFA770"/>
<rect y="230" width="12" height="12" rx="6" stroke="#EFA770"/>
<rect y="266" width="12" height="12" rx="6" fill="#EAD681"/>
<rect y="266" width="12" height="12" rx="6" stroke="#EAD681"/>
<path d="M25.022 303.2H28.606C29.2687 303.2 29.8427 303.326 30.328 303.578C30.8133 303.83 31.1773 304.18 31.42 304.628C31.672 305.067 31.798 305.561 31.798 306.112C31.798 306.849 31.616 307.456 31.252 307.932C30.8973 308.408 30.44 308.739 29.88 308.926L32.218 313H30.328L28.186 309.164H26.73V313H25.022V303.2ZM28.494 307.666C28.998 307.666 29.39 307.535 29.67 307.274C29.9593 307.003 30.104 306.644 30.104 306.196C30.104 305.739 29.9593 305.384 29.67 305.132C29.3807 304.871 28.9793 304.74 28.466 304.74H26.73V307.666H28.494ZM34.2904 310.06C34.3184 310.359 34.4164 310.643 34.5844 310.914C34.7524 311.185 34.9764 311.404 35.2564 311.572C35.5458 311.731 35.8678 311.81 36.2224 311.81C36.6704 311.81 37.0391 311.703 37.3284 311.488C37.6271 311.273 37.8278 311.026 37.9304 310.746L39.3444 311.18C39.1298 311.777 38.7564 312.263 38.2244 312.636C37.7018 313.009 37.0344 313.196 36.2224 313.196C35.5598 313.196 34.9578 313.037 34.4164 312.72C33.8844 312.403 33.4598 311.964 33.1424 311.404C32.8344 310.844 32.6804 310.209 32.6804 309.5C32.6804 308.809 32.8344 308.184 33.1424 307.624C33.4598 307.064 33.8844 306.625 34.4164 306.308C34.9578 305.981 35.5551 305.818 36.2084 305.818C36.8711 305.818 37.4498 305.972 37.9444 306.28C38.4484 306.579 38.8358 306.999 39.1064 307.54C39.3771 308.081 39.5124 308.707 39.5124 309.416V310.06H34.2904ZM38.0284 308.772C38.0098 308.539 37.9304 308.301 37.7904 308.058C37.6504 307.815 37.4451 307.615 37.1744 307.456C36.9131 307.288 36.5958 307.204 36.2224 307.204C35.6904 307.204 35.2564 307.358 34.9204 307.666C34.5938 307.965 34.3884 308.333 34.3044 308.772H38.0284ZM42.9488 313.196C42.5101 313.196 42.1088 313.107 41.7448 312.93C41.3808 312.753 41.0914 312.501 40.8768 312.174C40.6621 311.847 40.5548 311.469 40.5548 311.04C40.5548 310.452 40.7554 309.957 41.1568 309.556C41.5674 309.145 42.2861 308.87 43.3128 308.73L44.8108 308.52V308.436C44.8108 307.587 44.3814 307.162 43.5228 307.162C43.0934 307.162 42.7668 307.26 42.5428 307.456C42.3281 307.643 42.1928 307.923 42.1368 308.296L40.6528 307.932C40.8488 307.223 41.1801 306.695 41.6468 306.35C42.1134 305.995 42.7574 305.818 43.5788 305.818C44.4188 305.818 45.1141 306.037 45.6648 306.476C46.2154 306.905 46.4908 307.549 46.4908 308.408V313H45.0768L44.8948 312.37C44.5028 312.921 43.8541 313.196 42.9488 313.196ZM43.3968 311.838C43.7981 311.838 44.1341 311.726 44.4048 311.502C44.6754 311.269 44.8108 310.951 44.8108 310.55V309.738L43.4248 309.948C42.9861 310.013 42.6641 310.125 42.4588 310.284C42.2628 310.433 42.1648 310.653 42.1648 310.942C42.1648 311.213 42.2721 311.432 42.4868 311.6C42.7108 311.759 43.0141 311.838 43.3968 311.838ZM51.1075 313.196C50.4728 313.196 49.8942 313.033 49.3715 312.706C48.8582 312.37 48.4522 311.922 48.1535 311.362C47.8642 310.793 47.7195 310.172 47.7195 309.5C47.7195 308.819 47.8642 308.198 48.1535 307.638C48.4428 307.078 48.8442 306.635 49.3575 306.308C49.8708 305.981 50.4495 305.818 51.0935 305.818C51.5882 305.818 52.0175 305.911 52.3815 306.098C52.7548 306.285 53.0488 306.518 53.2635 306.798V303.2H54.9435V313H53.5575L53.3335 312.146C53.1188 312.435 52.8248 312.683 52.4515 312.888C52.0782 313.093 51.6302 313.196 51.1075 313.196ZM51.3455 311.684C51.9055 311.684 52.3675 311.479 52.7315 311.068C53.0955 310.657 53.2775 310.135 53.2775 309.5C53.2775 308.865 53.0955 308.347 52.7315 307.946C52.3675 307.535 51.9055 307.33 51.3455 307.33C50.9815 307.33 50.6502 307.423 50.3515 307.61C50.0528 307.797 49.8195 308.058 49.6515 308.394C49.4835 308.721 49.3995 309.089 49.3995 309.5C49.3995 309.92 49.4835 310.298 49.6515 310.634C49.8195 310.961 50.0528 311.217 50.3515 311.404C50.6502 311.591 50.9815 311.684 51.3455 311.684ZM63.0111 306.014V312.734C63.0111 313.723 62.7171 314.512 62.1291 315.1C61.5411 315.697 60.7244 315.996 59.6791 315.996C58.8391 315.996 58.1624 315.791 57.6491 315.38C57.1451 314.979 56.8044 314.442 56.6271 313.77L58.1951 313.448C58.3444 314.185 58.8391 314.554 59.6791 314.554C60.1924 314.554 60.5938 314.395 60.8831 314.078C61.1818 313.77 61.3311 313.327 61.3311 312.748V312.006L61.3171 311.964C61.0558 312.281 60.7618 312.524 60.4351 312.692C60.1084 312.851 59.6978 312.93 59.2031 312.93C58.4098 312.93 57.7844 312.687 57.3271 312.202C56.8791 311.717 56.6551 310.979 56.6551 309.99V306.014H58.3351V309.71C58.3351 310.307 58.4564 310.732 58.6991 310.984C58.9418 311.236 59.2871 311.362 59.7351 311.362C60.2111 311.362 60.5938 311.208 60.8831 310.9C61.1818 310.592 61.3311 310.153 61.3311 309.584V306.014H63.0111ZM70.0593 315.394C69.574 314.703 69.1493 313.784 68.7853 312.636C68.4307 311.488 68.2533 310.209 68.2533 308.8C68.2533 307.391 68.4353 306.117 68.7993 304.978C69.1633 303.839 69.5927 302.925 70.0873 302.234L71.4033 303.102C70.9647 303.718 70.6007 304.511 70.3113 305.482C70.022 306.453 69.8773 307.568 69.8773 308.828C69.8773 310.069 70.0267 311.175 70.3253 312.146C70.624 313.117 70.9973 313.915 71.4453 314.54L70.0593 315.394ZM74.0392 305.104C73.7965 305.263 73.4745 305.412 73.0732 305.552C72.6718 305.683 72.3125 305.767 71.9952 305.804V304.082C72.2938 304.035 72.6298 303.933 73.0032 303.774C73.3858 303.606 73.7312 303.415 74.0392 303.2H75.7472V313H74.0392V305.104ZM77.6665 311.418L80.9705 308.534C81.5025 308.077 81.8852 307.68 82.1185 307.344C82.3518 306.999 82.4685 306.593 82.4685 306.126C82.4685 305.697 82.3145 305.333 82.0065 305.034C81.7078 304.735 81.3158 304.586 80.8305 304.586C80.2985 304.586 79.8645 304.759 79.5285 305.104C79.2018 305.449 79.0432 305.907 79.0525 306.476L77.4705 306.042C77.4985 305.445 77.6665 304.917 77.9745 304.46C78.2825 303.993 78.6838 303.634 79.1785 303.382C79.6825 303.13 80.2332 303.004 80.8305 303.004C81.4465 303.004 82.0112 303.139 82.5245 303.41C83.0378 303.681 83.4392 304.054 83.7285 304.53C84.0272 304.997 84.1765 305.524 84.1765 306.112C84.1765 306.831 84.0085 307.447 83.6725 307.96C83.3458 308.473 82.8465 309.024 82.1745 309.612L80.1025 311.418H84.1905V313H77.6665V311.418ZM85.0098 314.526C85.4578 313.901 85.8311 313.103 86.1298 312.132C86.4285 311.161 86.5778 310.055 86.5778 308.814C86.5778 307.554 86.4331 306.439 86.1438 305.468C85.8545 304.497 85.4905 303.704 85.0518 303.088L86.3678 302.22C86.8625 302.911 87.2918 303.825 87.6558 304.964C88.0198 306.103 88.2018 307.377 88.2018 308.786C88.2018 310.195 88.0198 311.474 87.6558 312.622C87.3011 313.77 86.8811 314.689 86.3958 315.38L85.0098 314.526Z" fill="#7F7F7F"/>
<rect y="303" width="12" height="12" rx="6" fill="#68D898"/>
<rect y="303" width="12" height="12" rx="6" stroke="#68D898"/>
<circle cx="112" cy="84" r="63" fill="white"/>
<path d="M103.483 84.308C102.442 84.308 101.51 84.1027 100.689 83.692C99.8823 83.2813 99.2516 82.7313 98.7969 82.042C98.3423 81.338 98.1003 80.5753 98.0709 79.754L100.535 79.028C100.564 79.82 100.85 80.4873 101.393 81.03C101.95 81.558 102.647 81.822 103.483 81.822C104.319 81.822 105.008 81.558 105.551 81.03C106.108 80.502 106.387 79.842 106.387 79.05C106.387 78.2433 106.116 77.5833 105.573 77.07C105.045 76.542 104.348 76.278 103.483 76.278C103.175 76.278 102.83 76.3367 102.449 76.454L101.085 74.826L104.891 71.086H98.5989V68.6H108.059V71.086L105.001 74.188C106.174 74.3347 107.142 74.826 107.905 75.662C108.682 76.498 109.071 77.6273 109.071 79.05C109.071 80.0473 108.829 80.9493 108.345 81.756C107.861 82.548 107.194 83.1713 106.343 83.626C105.507 84.0807 104.554 84.308 103.483 84.308ZM116.508 84.308C114.63 84.308 113.222 83.6773 112.284 82.416C111.345 81.14 110.876 79.3433 110.876 77.026C110.876 74.21 111.323 72.054 112.218 70.558C113.127 69.0473 114.616 68.292 116.684 68.292C118.033 68.292 119.111 68.644 119.918 69.348C120.739 70.0373 121.304 70.976 121.612 72.164L119.236 72.868C119.03 72.1933 118.73 71.68 118.334 71.328C117.938 70.9613 117.388 70.778 116.684 70.778C115.657 70.778 114.916 71.152 114.462 71.9C114.007 72.648 113.743 73.7187 113.67 75.112C113.89 74.8187 114.271 74.54 114.814 74.276C115.371 73.9973 116.038 73.858 116.816 73.858C117.784 73.858 118.664 74.0707 119.456 74.496C120.248 74.9213 120.871 75.53 121.326 76.322C121.78 77.114 122.008 78.0233 122.008 79.05C122.008 80.0913 121.766 81.008 121.282 81.8C120.812 82.592 120.16 83.208 119.324 83.648C118.488 84.088 117.549 84.308 116.508 84.308ZM116.508 81.844C117.329 81.844 118.004 81.5873 118.532 81.074C119.06 80.546 119.324 79.8713 119.324 79.05C119.324 78.214 119.06 77.5467 118.532 77.048C118.018 76.5347 117.344 76.278 116.508 76.278C115.701 76.278 115.034 76.542 114.506 77.07C113.978 77.5833 113.714 78.2433 113.714 79.05C113.714 79.842 113.97 80.5093 114.484 81.052C115.012 81.58 115.686 81.844 116.508 81.844ZM83.5692 95.312C83.5852 95.696 83.6812 96.048 83.8572 96.368C84.0332 96.68 84.2692 96.928 84.5652 97.112C84.8692 97.296 85.2132 97.388 85.5972 97.388C86.0452 97.388 86.4252 97.28 86.7372 97.064C87.0572 96.84 87.2692 96.568 87.3732 96.248L88.1772 96.5C88.0092 96.972 87.7012 97.368 87.2532 97.688C86.8132 98.008 86.2612 98.168 85.5972 98.168C85.0132 98.168 84.4972 98.032 84.0492 97.76C83.6092 97.48 83.2692 97.104 83.0292 96.632C82.7892 96.152 82.6692 95.628 82.6692 95.06C82.6692 94.5 82.7932 93.984 83.0412 93.512C83.2972 93.032 83.6492 92.652 84.0972 92.372C84.5452 92.092 85.0412 91.952 85.5852 91.952C86.1292 91.952 86.6092 92.076 87.0252 92.324C87.4412 92.564 87.7652 92.908 87.9972 93.356C88.2292 93.804 88.3452 94.324 88.3452 94.916V95.312H83.5692ZM87.4932 94.556C87.4532 94.036 87.2572 93.604 86.9052 93.26C86.5612 92.908 86.1252 92.732 85.5972 92.732C85.0372 92.732 84.5772 92.904 84.2172 93.248C83.8652 93.592 83.6532 94.028 83.5812 94.556H87.4932ZM89.7423 92.12H90.5103L90.6303 92.924C91.0943 92.276 91.7343 91.952 92.5503 91.952C92.9583 91.952 93.3063 92.044 93.5943 92.228C93.8903 92.412 94.1103 92.66 94.2543 92.972C94.7503 92.292 95.4343 91.952 96.3063 91.952C96.8663 91.952 97.3263 92.128 97.6863 92.48C98.0543 92.832 98.2383 93.356 98.2383 94.052V98H97.3263V94.4C97.3263 93.816 97.2103 93.404 96.9783 93.164C96.7543 92.924 96.4343 92.804 96.0183 92.804C95.5783 92.804 95.2063 92.972 94.9023 93.308C94.5983 93.636 94.4463 94.088 94.4463 94.664V98H93.5343V94.4C93.5343 93.336 93.1023 92.804 92.2383 92.804C91.9583 92.804 91.6983 92.876 91.4583 93.02C91.2183 93.164 91.0223 93.376 90.8703 93.656C90.7263 93.936 90.6543 94.272 90.6543 94.664V98H89.7423V92.12ZM102.89 91.964C103.458 91.964 103.954 92.116 104.378 92.42C104.802 92.716 105.126 93.104 105.35 93.584C105.574 94.056 105.686 94.552 105.686 95.072C105.686 95.6 105.578 96.1 105.362 96.572C105.154 97.044 104.838 97.428 104.414 97.724C103.998 98.02 103.49 98.168 102.89 98.168C102.434 98.168 102.034 98.076 101.69 97.892C101.346 97.708 101.058 97.46 100.826 97.148V100.52H99.9142V92.12H100.682L100.802 92.996C101.018 92.692 101.298 92.444 101.642 92.252C101.994 92.06 102.41 91.964 102.89 91.964ZM102.794 92.78C102.402 92.78 102.054 92.88 101.75 93.08C101.454 93.272 101.222 93.544 101.054 93.896C100.894 94.24 100.814 94.632 100.814 95.072C100.814 95.744 100.994 96.292 101.354 96.716C101.722 97.14 102.202 97.352 102.794 97.352C103.178 97.352 103.518 97.256 103.814 97.064C104.118 96.864 104.354 96.592 104.522 96.248C104.69 95.904 104.774 95.512 104.774 95.072C104.774 94.632 104.69 94.24 104.522 93.896C104.354 93.544 104.118 93.272 103.814 93.08C103.518 92.88 103.178 92.78 102.794 92.78ZM107.074 89.6H107.986V98H107.074V89.6ZM112.376 98.168C111.76 98.168 111.224 98.02 110.768 97.724C110.312 97.428 109.964 97.044 109.724 96.572C109.492 96.092 109.376 95.588 109.376 95.06C109.376 94.532 109.496 94.032 109.736 93.56C109.984 93.08 110.336 92.692 110.792 92.396C111.248 92.1 111.776 91.952 112.376 91.952C112.992 91.952 113.528 92.1 113.984 92.396C114.44 92.692 114.788 93.08 115.028 93.56C115.276 94.032 115.4 94.532 115.4 95.06C115.4 95.588 115.276 96.092 115.028 96.572C114.788 97.044 114.44 97.428 113.984 97.724C113.528 98.02 112.992 98.168 112.376 98.168ZM112.376 97.34C112.784 97.34 113.148 97.24 113.468 97.04C113.788 96.84 114.036 96.568 114.212 96.224C114.396 95.872 114.488 95.484 114.488 95.06C114.488 94.628 114.396 94.24 114.212 93.896C114.036 93.552 113.788 93.28 113.468 93.08C113.148 92.88 112.784 92.78 112.376 92.78C111.968 92.78 111.604 92.88 111.284 93.08C110.972 93.28 110.728 93.552 110.552 93.896C110.376 94.24 110.288 94.628 110.288 95.06C110.288 95.484 110.376 95.872 110.552 96.224C110.728 96.568 110.976 96.84 111.296 97.04C111.616 97.24 111.976 97.34 112.376 97.34ZM121.865 92.12V98.012C121.865 98.476 121.777 98.908 121.601 99.308C121.433 99.708 121.153 100.032 120.761 100.28C120.377 100.536 119.885 100.664 119.285 100.664C118.605 100.664 118.057 100.496 117.641 100.16C117.233 99.824 116.949 99.368 116.789 98.792L117.665 98.588C117.761 99.004 117.941 99.316 118.205 99.524C118.469 99.74 118.829 99.848 119.285 99.848C119.845 99.848 120.261 99.684 120.533 99.356C120.813 99.036 120.953 98.596 120.953 98.036V97.148L120.941 97.088C120.677 97.416 120.389 97.656 120.077 97.808C119.773 97.96 119.385 98.036 118.913 98.036C118.321 98.036 117.821 97.856 117.413 97.496C117.005 97.136 116.801 96.596 116.801 95.876V92.12H117.713V95.576C117.713 96.16 117.841 96.576 118.097 96.824C118.353 97.064 118.713 97.184 119.177 97.184C119.681 97.184 120.101 97.016 120.437 96.68C120.781 96.344 120.953 95.892 120.953 95.324V92.12H121.865ZM124.069 95.312C124.085 95.696 124.181 96.048 124.357 96.368C124.533 96.68 124.769 96.928 125.065 97.112C125.369 97.296 125.713 97.388 126.097 97.388C126.545 97.388 126.925 97.28 127.237 97.064C127.557 96.84 127.769 96.568 127.873 96.248L128.677 96.5C128.509 96.972 128.201 97.368 127.753 97.688C127.313 98.008 126.761 98.168 126.097 98.168C125.513 98.168 124.997 98.032 124.549 97.76C124.109 97.48 123.769 97.104 123.529 96.632C123.289 96.152 123.169 95.628 123.169 95.06C123.169 94.5 123.293 93.984 123.541 93.512C123.797 93.032 124.149 92.652 124.597 92.372C125.045 92.092 125.541 91.952 126.085 91.952C126.629 91.952 127.109 92.076 127.525 92.324C127.941 92.564 128.265 92.908 128.497 93.356C128.729 93.804 128.845 94.324 128.845 94.916V95.312H124.069ZM127.993 94.556C127.953 94.036 127.757 93.604 127.405 93.26C127.061 92.908 126.625 92.732 126.097 92.732C125.537 92.732 125.077 92.904 124.717 93.248C124.365 93.592 124.153 94.028 124.081 94.556H127.993ZM130.854 95.312C130.87 95.696 130.966 96.048 131.142 96.368C131.318 96.68 131.554 96.928 131.85 97.112C132.154 97.296 132.498 97.388 132.882 97.388C133.33 97.388 133.71 97.28 134.022 97.064C134.342 96.84 134.554 96.568 134.658 96.248L135.462 96.5C135.294 96.972 134.986 97.368 134.538 97.688C134.098 98.008 133.546 98.168 132.882 98.168C132.298 98.168 131.782 98.032 131.334 97.76C130.894 97.48 130.554 97.104 130.314 96.632C130.074 96.152 129.954 95.628 129.954 95.06C129.954 94.5 130.078 93.984 130.326 93.512C130.582 93.032 130.934 92.652 131.382 92.372C131.83 92.092 132.326 91.952 132.87 91.952C133.414 91.952 133.894 92.076 134.31 92.324C134.726 92.564 135.05 92.908 135.282 93.356C135.514 93.804 135.63 94.324 135.63 94.916V95.312H130.854ZM134.778 94.556C134.738 94.036 134.542 93.604 134.19 93.26C133.846 92.908 133.41 92.732 132.882 92.732C132.322 92.732 131.862 92.904 131.502 93.248C131.15 93.592 130.938 94.028 130.866 94.556H134.778ZM139.058 98.168C137.794 98.168 136.99 97.568 136.646 96.368L137.474 96.104C137.586 96.48 137.754 96.784 137.978 97.016C138.202 97.248 138.562 97.364 139.058 97.364C139.466 97.364 139.798 97.284 140.054 97.124C140.31 96.956 140.438 96.72 140.438 96.416C140.438 96.272 140.41 96.144 140.354 96.032C140.298 95.92 140.17 95.812 139.97 95.708C139.77 95.596 139.47 95.508 139.07 95.444C138.382 95.324 137.846 95.136 137.462 94.88C137.078 94.616 136.886 94.216 136.886 93.68C136.886 93.136 137.094 92.712 137.51 92.408C137.926 92.104 138.442 91.952 139.058 91.952C139.658 91.952 140.142 92.104 140.51 92.408C140.886 92.712 141.138 93.14 141.266 93.692L140.426 93.908C140.362 93.572 140.218 93.296 139.994 93.08C139.77 92.864 139.458 92.756 139.058 92.756C138.594 92.756 138.262 92.848 138.062 93.032C137.862 93.208 137.762 93.42 137.762 93.668C137.762 93.94 137.882 94.144 138.122 94.28C138.37 94.408 138.738 94.516 139.226 94.604C139.898 94.724 140.414 94.92 140.774 95.192C141.142 95.464 141.326 95.868 141.326 96.404C141.326 96.756 141.222 97.068 141.014 97.34C140.814 97.604 140.542 97.808 140.198 97.952C139.854 98.096 139.474 98.168 139.058 98.168Z" fill="#0B3551"/>
</svg>
