<svg width="426" height="168" viewBox="0 0 426 168" fill="none" xmlns="http://www.w3.org/2000/svg">
<path d="M224.284 27.182C226.3 27.182 227.896 26.034 227.896 24.242C227.896 22.548 226.818 21.666 224.578 21.218C223.248 20.938 222.52 20.658 222.52 19.888C222.52 18.978 223.248 18.53 224.27 18.53C225.348 18.53 225.838 19.104 226.104 20.112L227.7 19.664C227.28 17.984 226.076 16.99 224.27 16.99C222.24 16.99 220.812 18.18 220.812 19.888C220.812 21.568 222.058 22.422 224.27 22.828C225.782 23.094 226.188 23.584 226.188 24.242C226.188 25.166 225.39 25.642 224.284 25.642C223.038 25.642 222.464 25.068 222.128 23.934L220.532 24.396C221.008 26.216 222.352 27.182 224.284 27.182ZM230.144 19.062C230.69 19.062 231.152 18.614 231.152 18.068C231.152 17.522 230.69 17.074 230.144 17.074C229.598 17.074 229.164 17.522 229.164 18.068C229.164 18.614 229.598 19.062 230.144 19.062ZM229.318 27H230.998V20.014H229.318V27ZM235.969 29.996C238.237 29.996 239.539 28.694 239.539 26.734V20.014H238.167L237.859 20.854C237.565 20.378 236.865 19.818 235.745 19.818C233.827 19.818 232.427 21.372 232.427 23.388C232.427 25.418 233.799 26.944 235.759 26.944C236.823 26.944 237.551 26.426 237.859 25.908V26.762C237.859 27.938 237.145 28.568 235.969 28.568C234.989 28.568 234.471 28.092 234.303 27.378L232.735 27.728C233.085 29.016 234.093 29.996 235.969 29.996ZM235.997 25.432C234.905 25.432 234.107 24.634 234.107 23.388C234.107 22.128 234.891 21.33 235.983 21.33C237.061 21.33 237.859 22.128 237.859 23.388C237.859 24.634 237.075 25.432 235.997 25.432ZM241.225 27H242.905V23.164C242.905 21.974 243.591 21.372 244.445 21.372C245.229 21.372 245.803 21.764 245.803 22.996V27H247.483V22.772C247.483 20.728 246.559 19.818 244.977 19.818C243.941 19.818 243.283 20.28 242.849 20.854L242.611 20.014H241.225V27ZM259.35 20.014H257.67V23.836C257.67 25.026 256.984 25.628 256.13 25.628C255.346 25.628 254.772 25.25 254.772 24.004V20.014H253.092V24.228C253.092 26.272 254.002 27.196 255.598 27.196C256.634 27.196 257.292 26.734 257.726 26.16L257.964 27H259.35V20.014ZM264.871 19.818C263.709 19.818 262.995 20.392 262.645 20.868L262.421 20.014H261.035V29.814H262.715V26.216C263.093 26.706 263.821 27.196 264.885 27.196C266.887 27.196 268.259 25.558 268.259 23.514C268.259 21.47 266.817 19.818 264.871 19.818ZM264.633 21.33C265.753 21.33 266.579 22.24 266.579 23.514C266.579 24.774 265.753 25.684 264.633 25.684C263.513 25.684 262.715 24.788 262.715 23.514C262.715 22.24 263.513 21.33 264.633 21.33ZM277.395 19.818C276.233 19.818 275.519 20.392 275.169 20.868L274.945 20.014H273.559V29.814H275.239V26.216C275.617 26.706 276.345 27.196 277.409 27.196C279.411 27.196 280.783 25.558 280.783 23.514C280.783 21.47 279.341 19.818 277.395 19.818ZM277.157 21.33C278.277 21.33 279.103 22.24 279.103 23.514C279.103 24.774 278.277 25.684 277.157 25.684C276.037 25.684 275.239 24.788 275.239 23.514C275.239 22.24 276.037 21.33 277.157 21.33ZM288.682 24.06V23.416C288.682 21.288 287.408 19.818 285.378 19.818C283.39 19.818 281.85 21.386 281.85 23.5C281.85 25.656 283.39 27.196 285.392 27.196C287.1 27.196 288.108 26.3 288.514 25.18L287.1 24.746C286.932 25.222 286.372 25.81 285.392 25.81C284.286 25.81 283.53 24.942 283.46 24.06H288.682ZM287.198 22.772H283.474C283.628 21.974 284.258 21.204 285.392 21.204C286.596 21.204 287.156 22.142 287.198 22.772ZM290.061 27H291.741V23.164C291.741 21.974 292.427 21.372 293.281 21.372C294.065 21.372 294.639 21.764 294.639 22.996V27H296.319V22.772C296.319 20.728 295.395 19.818 293.813 19.818C292.777 19.818 292.119 20.28 291.685 20.854L291.447 20.014H290.061V27ZM301.084 27.196C302.246 27.196 302.96 26.608 303.31 26.146L303.534 27H304.92V17.2H303.24V20.798C302.862 20.308 302.134 19.818 301.07 19.818C299.082 19.818 297.696 21.456 297.696 23.5C297.696 25.544 299.138 27.196 301.084 27.196ZM301.322 25.684C300.216 25.684 299.376 24.774 299.376 23.5C299.376 22.24 300.216 21.33 301.322 21.33C302.442 21.33 303.254 22.226 303.254 23.5C303.254 24.774 302.442 25.684 301.322 25.684ZM307.486 19.062C308.032 19.062 308.494 18.614 308.494 18.068C308.494 17.522 308.032 17.074 307.486 17.074C306.94 17.074 306.506 17.522 306.506 18.068C306.506 18.614 306.94 19.062 307.486 19.062ZM306.66 27H308.34V20.014H306.66V27ZM310.076 27H311.756V23.164C311.756 21.974 312.442 21.372 313.296 21.372C314.08 21.372 314.654 21.764 314.654 22.996V27H316.334V22.772C316.334 20.728 315.41 19.818 313.828 19.818C312.792 19.818 312.134 20.28 311.7 20.854L311.462 20.014H310.076V27ZM321.254 29.996C323.522 29.996 324.824 28.694 324.824 26.734V20.014H323.452L323.144 20.854C322.85 20.378 322.15 19.818 321.03 19.818C319.112 19.818 317.712 21.372 317.712 23.388C317.712 25.418 319.084 26.944 321.044 26.944C322.108 26.944 322.836 26.426 323.144 25.908V26.762C323.144 27.938 322.43 28.568 321.254 28.568C320.274 28.568 319.756 28.092 319.588 27.378L318.02 27.728C318.37 29.016 319.378 29.996 321.254 29.996ZM321.282 25.432C320.19 25.432 319.392 24.634 319.392 23.388C319.392 22.128 320.176 21.33 321.268 21.33C322.346 21.33 323.144 22.128 323.144 23.388C323.144 24.634 322.36 25.432 321.282 25.432ZM331.876 29.394L333.262 28.54C332.478 27.448 331.694 25.516 331.694 22.828C331.694 20.098 332.45 18.18 333.22 17.102L331.904 16.234C331.064 17.396 330.07 19.706 330.07 22.8C330.07 25.88 331.05 28.218 331.876 29.394ZM335.856 27H337.564V17.2H335.856C335.254 17.606 334.428 17.984 333.812 18.082V19.804C334.414 19.734 335.352 19.44 335.856 19.104V27ZM343.473 27H345.181L345.195 24.522H346.329V23.066H345.195L345.181 17.2H343.361L339.091 23.248V24.522H343.487L343.473 27ZM340.953 23.066L343.473 19.566L343.487 23.066H340.953ZM348.349 29.38C349.175 28.204 350.155 25.866 350.155 22.786C350.155 19.692 349.161 17.382 348.321 16.22L347.005 17.088C347.775 18.166 348.531 20.084 348.531 22.814C348.531 25.502 347.747 27.434 346.963 28.526L348.349 29.38Z" fill="#7F7F7F"/>
<path d="M221.022 65H222.73V61.444H224.606C226.272 61.444 227.868 60.45 227.868 58.308C227.868 56.11 226.3 55.2 224.522 55.2H221.022V65ZM222.73 59.904V56.74H224.382C225.586 56.74 226.16 57.398 226.16 58.308C226.16 59.218 225.614 59.904 224.396 59.904H222.73ZM235.28 62.06V61.416C235.28 59.288 234.006 57.818 231.976 57.818C229.988 57.818 228.448 59.386 228.448 61.5C228.448 63.656 229.988 65.196 231.99 65.196C233.698 65.196 234.706 64.3 235.112 63.18L233.698 62.746C233.53 63.222 232.97 63.81 231.99 63.81C230.884 63.81 230.128 62.942 230.058 62.06H235.28ZM233.796 60.772H230.072C230.226 59.974 230.856 59.204 231.99 59.204C233.194 59.204 233.754 60.142 233.796 60.772ZM236.658 65H238.338V61.164C238.338 59.974 239.024 59.372 239.878 59.372C240.662 59.372 241.236 59.764 241.236 60.996V65H242.916V60.772C242.916 58.728 241.992 57.818 240.41 57.818C239.374 57.818 238.716 58.28 238.282 58.854L238.044 58.014H236.658V65ZM247.682 65.196C248.844 65.196 249.558 64.608 249.908 64.146L250.132 65H251.518V55.2H249.838V58.798C249.46 58.308 248.732 57.818 247.668 57.818C245.68 57.818 244.294 59.456 244.294 61.5C244.294 63.544 245.736 65.196 247.682 65.196ZM247.92 63.684C246.814 63.684 245.974 62.774 245.974 61.5C245.974 60.24 246.814 59.33 247.92 59.33C249.04 59.33 249.852 60.226 249.852 61.5C249.852 62.774 249.04 63.684 247.92 63.684ZM254.083 57.062C254.629 57.062 255.091 56.614 255.091 56.068C255.091 55.522 254.629 55.074 254.083 55.074C253.537 55.074 253.103 55.522 253.103 56.068C253.103 56.614 253.537 57.062 254.083 57.062ZM253.257 65H254.937V58.014H253.257V65ZM256.674 65H258.354V61.164C258.354 59.974 259.04 59.372 259.894 59.372C260.678 59.372 261.252 59.764 261.252 60.996V65H262.932V60.772C262.932 58.728 262.008 57.818 260.426 57.818C259.39 57.818 258.732 58.28 258.298 58.854L258.06 58.014H256.674V65ZM267.851 67.996C270.119 67.996 271.421 66.694 271.421 64.734V58.014H270.049L269.741 58.854C269.447 58.378 268.747 57.818 267.627 57.818C265.709 57.818 264.309 59.372 264.309 61.388C264.309 63.418 265.681 64.944 267.641 64.944C268.705 64.944 269.433 64.426 269.741 63.908V64.762C269.741 65.938 269.027 66.568 267.851 66.568C266.871 66.568 266.353 66.092 266.185 65.378L264.617 65.728C264.967 67.016 265.975 67.996 267.851 67.996ZM267.879 63.432C266.787 63.432 265.989 62.634 265.989 61.388C265.989 60.128 266.773 59.33 267.865 59.33C268.943 59.33 269.741 60.128 269.741 61.388C269.741 62.634 268.957 63.432 267.879 63.432ZM279.089 65.196C280.209 65.196 280.755 64.762 281.035 64.37L281.217 65H282.631V60.408C282.631 58.588 281.273 57.818 279.719 57.818C278.053 57.818 277.171 58.546 276.793 59.932L278.277 60.296C278.389 59.582 278.781 59.162 279.663 59.162C280.559 59.162 280.951 59.638 280.951 60.436V60.52L279.453 60.73C277.227 61.038 276.695 62.018 276.695 63.04C276.695 64.37 277.773 65.196 279.089 65.196ZM279.537 63.838C278.767 63.838 278.305 63.474 278.305 62.942C278.305 62.368 278.697 62.074 279.565 61.948L280.951 61.738V62.55C280.951 63.39 280.293 63.838 279.537 63.838ZM287.472 65.196C288.984 65.196 290.104 64.342 290.58 63.054L289.054 62.536C288.802 63.236 288.228 63.642 287.472 63.642C286.338 63.642 285.54 62.76 285.54 61.5C285.54 60.24 286.338 59.372 287.472 59.372C288.27 59.372 288.844 59.82 289.096 60.534L290.622 60.016C290.202 58.714 289.04 57.818 287.472 57.818C285.358 57.818 283.86 59.428 283.86 61.5C283.86 63.586 285.358 65.196 287.472 65.196ZM295.306 65.196C296.818 65.196 297.938 64.342 298.414 63.054L296.888 62.536C296.636 63.236 296.062 63.642 295.306 63.642C294.172 63.642 293.374 62.76 293.374 61.5C293.374 60.24 294.172 59.372 295.306 59.372C296.104 59.372 296.678 59.82 296.93 60.534L298.456 60.016C298.036 58.714 296.874 57.818 295.306 57.818C293.192 57.818 291.694 59.428 291.694 61.5C291.694 63.586 293.192 65.196 295.306 65.196ZM303.154 65.196C305.254 65.196 306.794 63.572 306.794 61.5C306.794 59.442 305.254 57.818 303.154 57.818C301.068 57.818 299.528 59.442 299.528 61.5C299.528 63.572 301.04 65.196 303.154 65.196ZM303.154 63.642C302.02 63.642 301.208 62.746 301.208 61.5C301.208 60.268 302.02 59.372 303.154 59.372C304.274 59.372 305.114 60.268 305.114 61.5C305.114 62.746 304.274 63.642 303.154 63.642ZM314.42 58.014H312.74V61.836C312.74 63.026 312.054 63.628 311.2 63.628C310.416 63.628 309.842 63.25 309.842 62.004V58.014H308.162V62.228C308.162 64.272 309.072 65.196 310.668 65.196C311.704 65.196 312.362 64.734 312.796 64.16L313.034 65H314.42V58.014ZM316.106 65H317.786V61.164C317.786 59.974 318.472 59.372 319.326 59.372C320.11 59.372 320.684 59.764 320.684 60.996V65H322.364V60.772C322.364 58.728 321.44 57.818 319.858 57.818C318.822 57.818 318.164 58.28 317.73 58.854L317.492 58.014H316.106V65ZM326.612 65.196C327.578 65.196 328.124 64.818 328.32 64.58L327.62 63.39C327.494 63.502 327.284 63.628 326.976 63.628C326.556 63.628 326.318 63.404 326.318 62.886V59.484H328.096V58.014H326.318V56.194H324.638V58.014H323.434V59.484H324.638V63.124C324.638 64.496 325.534 65.196 326.612 65.196ZM337.995 58.014L336.189 63.096L334.383 58.014H332.661L335.307 65H337.071L339.717 58.014H337.995ZM346.966 62.06V61.416C346.966 59.288 345.692 57.818 343.662 57.818C341.674 57.818 340.134 59.386 340.134 61.5C340.134 63.656 341.674 65.196 343.676 65.196C345.384 65.196 346.392 64.3 346.798 63.18L345.384 62.746C345.216 63.222 344.656 63.81 343.676 63.81C342.57 63.81 341.814 62.942 341.744 62.06H346.966ZM345.482 60.772H341.758C341.912 59.974 342.542 59.204 343.676 59.204C344.88 59.204 345.44 60.142 345.482 60.772ZM348.344 65H350.024V61.192C350.024 60.03 350.682 59.386 351.494 59.386C351.9 59.386 352.194 59.512 352.334 59.624L352.936 58.154C352.712 57.986 352.292 57.818 351.732 57.818C350.85 57.818 350.262 58.322 349.968 58.826L349.73 58.014H348.344V65ZM354.749 57.062C355.295 57.062 355.757 56.614 355.757 56.068C355.757 55.522 355.295 55.074 354.749 55.074C354.203 55.074 353.769 55.522 353.769 56.068C353.769 56.614 354.203 57.062 354.749 57.062ZM353.923 65H355.603V58.014H353.923V65ZM357.984 65H359.664V59.484H361.442V58.014H359.664V57.258C359.664 56.768 359.888 56.516 360.308 56.516C360.672 56.516 360.868 56.67 360.966 56.754L361.694 55.592C361.526 55.424 361.022 54.99 359.958 54.99C358.88 54.99 357.984 55.732 357.984 57.062V58.014H356.78V59.484H357.984V65ZM363.513 57.062C364.059 57.062 364.521 56.614 364.521 56.068C364.521 55.522 364.059 55.074 363.513 55.074C362.967 55.074 362.533 55.522 362.533 56.068C362.533 56.614 362.967 57.062 363.513 57.062ZM362.687 65H364.367V58.014H362.687V65ZM369.408 65.196C370.92 65.196 372.04 64.342 372.516 63.054L370.99 62.536C370.738 63.236 370.164 63.642 369.408 63.642C368.274 63.642 367.476 62.76 367.476 61.5C367.476 60.24 368.274 59.372 369.408 59.372C370.206 59.372 370.78 59.82 371.032 60.534L372.558 60.016C372.138 58.714 370.976 57.818 369.408 57.818C367.294 57.818 365.796 59.428 365.796 61.5C365.796 63.586 367.294 65.196 369.408 65.196ZM375.996 65.196C377.116 65.196 377.662 64.762 377.942 64.37L378.124 65H379.538V60.408C379.538 58.588 378.18 57.818 376.626 57.818C374.96 57.818 374.078 58.546 373.7 59.932L375.184 60.296C375.296 59.582 375.688 59.162 376.57 59.162C377.466 59.162 377.858 59.638 377.858 60.436V60.52L376.36 60.73C374.134 61.038 373.602 62.018 373.602 63.04C373.602 64.37 374.68 65.196 375.996 65.196ZM376.444 63.838C375.674 63.838 375.212 63.474 375.212 62.942C375.212 62.368 375.604 62.074 376.472 61.948L377.858 61.738V62.55C377.858 63.39 377.2 63.838 376.444 63.838ZM383.692 65.196C384.658 65.196 385.204 64.818 385.4 64.58L384.7 63.39C384.574 63.502 384.364 63.628 384.056 63.628C383.636 63.628 383.398 63.404 383.398 62.886V59.484H385.176V58.014H383.398V56.194H381.718V58.014H380.514V59.484H381.718V63.124C381.718 64.496 382.614 65.196 383.692 65.196ZM387.343 57.062C387.889 57.062 388.351 56.614 388.351 56.068C388.351 55.522 387.889 55.074 387.343 55.074C386.797 55.074 386.363 55.522 386.363 56.068C386.363 56.614 386.797 57.062 387.343 57.062ZM386.517 65H388.197V58.014H386.517V65ZM393.252 65.196C395.352 65.196 396.892 63.572 396.892 61.5C396.892 59.442 395.352 57.818 393.252 57.818C391.166 57.818 389.626 59.442 389.626 61.5C389.626 63.572 391.138 65.196 393.252 65.196ZM393.252 63.642C392.118 63.642 391.306 62.746 391.306 61.5C391.306 60.268 392.118 59.372 393.252 59.372C394.372 59.372 395.212 60.268 395.212 61.5C395.212 62.746 394.372 63.642 393.252 63.642ZM398.26 65H399.94V61.164C399.94 59.974 400.626 59.372 401.48 59.372C402.264 59.372 402.838 59.764 402.838 60.996V65H404.518V60.772C404.518 58.728 403.594 57.818 402.012 57.818C400.976 57.818 400.318 58.28 399.884 58.854L399.646 58.014H398.26V65ZM411.569 67.394L412.955 66.54C412.171 65.448 411.387 63.516 411.387 60.828C411.387 58.098 412.143 56.18 412.913 55.102L411.597 54.234C410.757 55.396 409.763 57.706 409.763 60.8C409.763 63.88 410.743 66.218 411.569 67.394ZM417.229 65.196C419.217 65.196 420.729 63.866 420.743 61.822C420.729 59.848 419.329 58.588 417.355 58.588C416.711 58.588 416.165 58.784 415.927 58.938L416.165 56.796H420.085V55.2H414.695L414.191 60.184L415.661 60.73C415.955 60.38 416.501 60.058 417.215 60.058C418.265 60.058 419.035 60.786 419.049 61.836C419.035 62.886 418.265 63.614 417.229 63.614C416.221 63.614 415.423 62.984 415.367 61.962L413.785 62.438C413.855 63.922 415.297 65.196 417.229 65.196ZM422.956 67.38C423.782 66.204 424.762 63.866 424.762 60.786C424.762 57.692 423.768 55.382 422.928 54.22L421.612 55.088C422.382 56.166 423.138 58.084 423.138 60.814C423.138 63.502 422.354 65.434 421.57 66.526L422.956 67.38Z" fill="#7F7F7F"/>
<path d="M225.712 101.182C228.806 101.182 230.71 98.83 230.71 96.086C230.71 93.342 228.806 90.99 225.712 90.99C222.576 90.99 220.7 93.342 220.7 96.086C220.7 98.83 222.59 101.182 225.712 101.182ZM225.712 99.6C223.668 99.6 222.408 98.102 222.408 96.086C222.408 94.084 223.682 92.572 225.712 92.572C227.728 92.572 229.002 94.084 229.002 96.086C229.002 98.102 227.728 99.6 225.712 99.6ZM236.092 93.818C234.93 93.818 234.216 94.392 233.866 94.868L233.642 94.014H232.256V103.814H233.936V100.216C234.314 100.706 235.042 101.196 236.106 101.196C238.108 101.196 239.48 99.558 239.48 97.514C239.48 95.47 238.038 93.818 236.092 93.818ZM235.854 95.33C236.974 95.33 237.8 96.24 237.8 97.514C237.8 98.774 236.974 99.684 235.854 99.684C234.734 99.684 233.936 98.788 233.936 97.514C233.936 96.24 234.734 95.33 235.854 95.33ZM243.337 101.196C244.303 101.196 244.849 100.818 245.045 100.58L244.345 99.39C244.219 99.502 244.009 99.628 243.701 99.628C243.281 99.628 243.043 99.404 243.043 98.886V95.484H244.821V94.014H243.043V92.194H241.363V94.014H240.159V95.484H241.363V99.124C241.363 100.496 242.259 101.196 243.337 101.196ZM253.347 101.196C255.447 101.196 256.987 99.572 256.987 97.5C256.987 95.442 255.447 93.818 253.347 93.818C251.261 93.818 249.721 95.442 249.721 97.5C249.721 99.572 251.233 101.196 253.347 101.196ZM253.347 99.642C252.213 99.642 251.401 98.746 251.401 97.5C251.401 96.268 252.213 95.372 253.347 95.372C254.467 95.372 255.307 96.268 255.307 97.5C255.307 98.746 254.467 99.642 253.347 99.642ZM264.614 94.014H262.934V97.836C262.934 99.026 262.248 99.628 261.394 99.628C260.61 99.628 260.036 99.25 260.036 98.004V94.014H258.356V98.228C258.356 100.272 259.266 101.196 260.862 101.196C261.898 101.196 262.556 100.734 262.99 100.16L263.228 101H264.614V94.014ZM268.917 101.196C269.883 101.196 270.429 100.818 270.625 100.58L269.925 99.39C269.799 99.502 269.589 99.628 269.281 99.628C268.861 99.628 268.623 99.404 268.623 98.886V95.484H270.401V94.014H268.623V92.194H266.943V94.014H265.739V95.484H266.943V99.124C266.943 100.496 267.839 101.196 268.917 101.196ZM277.052 103.394L278.438 102.54C277.654 101.448 276.87 99.516 276.87 96.828C276.87 94.098 277.626 92.18 278.396 91.102L277.08 90.234C276.24 91.396 275.246 93.706 275.246 96.8C275.246 99.88 276.226 102.218 277.052 103.394ZM282.711 101.196C284.699 101.196 286.211 99.866 286.225 97.822C286.211 95.848 284.811 94.588 282.837 94.588C282.193 94.588 281.647 94.784 281.409 94.938L281.647 92.796H285.567V91.2H280.177L279.673 96.184L281.143 96.73C281.437 96.38 281.983 96.058 282.697 96.058C283.747 96.058 284.517 96.786 284.531 97.836C284.517 98.886 283.747 99.614 282.711 99.614C281.703 99.614 280.905 98.984 280.849 97.962L279.267 98.438C279.337 99.922 280.779 101.196 282.711 101.196ZM288.439 103.38C289.265 102.204 290.245 99.866 290.245 96.786C290.245 93.692 289.251 91.382 288.411 90.22L287.095 91.088C287.865 92.166 288.621 94.084 288.621 96.814C288.621 99.502 287.837 101.434 287.053 102.526L288.439 103.38Z" fill="#7F7F7F"/>
<mask id="path-4-outside-1" maskUnits="userSpaceOnUse" x="-1" y="-1" width="86" height="136" fill="black">
<rect fill="white" x="-1" y="-1" width="86" height="136"/>
<path d="M84 1C68.6918 1 53.6818 5.23358 40.6298 13.2326C27.5777 21.2317 16.9921 32.6845 10.0434 46.3248C3.09474 59.965 0.0537347 75.2613 1.25665 90.5221C2.45957 105.783 7.85954 120.414 16.8595 132.797L84 84V1Z"/>
</mask>
<path d="M84 1C68.6918 1 53.6818 5.23358 40.6298 13.2326C27.5777 21.2317 16.9921 32.6845 10.0434 46.3248C3.09474 59.965 0.0537347 75.2613 1.25665 90.5221C2.45957 105.783 7.85954 120.414 16.8595 132.797L84 84V1Z" fill="#68D898"/>
<path d="M84 1C68.6918 1 53.6818 5.23358 40.6298 13.2326C27.5777 21.2317 16.9921 32.6845 10.0434 46.3248C3.09474 59.965 0.0537347 75.2613 1.25665 90.5221C2.45957 105.783 7.85954 120.414 16.8595 132.797L84 84V1Z" stroke="white" stroke-width="2" mask="url(#path-4-outside-1)"/>
<mask id="path-5-outside-2" maskUnits="userSpaceOnUse" x="9" y="82" width="151" height="87" fill="black">
<rect fill="white" x="9" y="82" width="151" height="87"/>
<path d="M10.6315 122.808C17.7891 136.34 28.5496 147.629 41.7231 155.426C54.8966 163.223 69.9699 167.226 85.2763 166.99C100.583 166.755 115.526 162.291 128.453 154.092C141.381 145.893 151.789 134.279 158.527 120.534L84 84L10.6315 122.808Z"/>
</mask>
<path d="M10.6315 122.808C17.7891 136.34 28.5496 147.629 41.7231 155.426C54.8966 163.223 69.9699 167.226 85.2763 166.99C100.583 166.755 115.526 162.291 128.453 154.092C141.381 145.893 151.789 134.279 158.527 120.534L84 84L10.6315 122.808Z" fill="#EAD681"/>
<path d="M10.6315 122.808C17.7891 136.34 28.5496 147.629 41.7231 155.426C54.8966 163.223 69.9699 167.226 85.2763 166.99C100.583 166.755 115.526 162.291 128.453 154.092C141.381 145.893 151.789 134.279 158.527 120.534L84 84L10.6315 122.808Z" stroke="white" stroke-width="2" mask="url(#path-5-outside-2)"/>
<mask id="path-6-outside-3" maskUnits="userSpaceOnUse" x="54" y="81" width="78" height="88" fill="black">
<rect fill="white" x="54" y="81" width="78" height="88"/>
<path d="M130.359 152.846C119.593 160.096 107.277 164.719 94.4007 166.346C81.524 167.972 68.4453 166.556 56.2151 162.211L84 84L130.359 152.846Z"/>
</mask>
<path d="M130.359 152.846C119.593 160.096 107.277 164.719 94.4007 166.346C81.524 167.972 68.4453 166.556 56.2151 162.211L84 84L130.359 152.846Z" fill="#EFA770"/>
<path d="M130.359 152.846C119.593 160.096 107.277 164.719 94.4007 166.346C81.524 167.972 68.4453 166.556 56.2151 162.211L84 84L130.359 152.846Z" stroke="white" stroke-width="2" mask="url(#path-6-outside-3)"/>
<mask id="path-7-outside-4" maskUnits="userSpaceOnUse" x="83" y="0" width="86" height="155" fill="black">
<rect fill="white" x="83" width="86" height="155"/>
<path d="M84 1C101.819 1 119.165 6.73458 133.473 17.3557C147.78 27.9768 158.29 42.9205 163.447 59.9767C168.605 77.033 168.136 95.2963 162.111 112.066C156.086 128.835 144.823 143.22 129.99 153.094L84 84V1Z"/>
</mask>
<path d="M84 1C101.819 1 119.165 6.73458 133.473 17.3557C147.78 27.9768 158.29 42.9205 163.447 59.9767C168.605 77.033 168.136 95.2963 162.111 112.066C156.086 128.835 144.823 143.22 129.99 153.094L84 84V1Z" fill="#13C8F5"/>
<path d="M84 1C101.819 1 119.165 6.73458 133.473 17.3557C147.78 27.9768 158.29 42.9205 163.447 59.9767C168.605 77.033 168.136 95.2963 162.111 112.066C156.086 128.835 144.823 143.22 129.99 153.094L84 84V1Z" stroke="white" stroke-width="2" mask="url(#path-7-outside-4)"/>
<rect x="196" y="16" width="12" height="12" rx="6" fill="#13C8F5"/>
<rect x="196" y="16" width="12" height="12" rx="6" stroke="#13C8F5"/>
<rect x="196" y="54" width="12" height="12" rx="6" fill="#EFA770"/>
<rect x="196" y="54" width="12" height="12" rx="6" stroke="#EFA770"/>
<rect x="196" y="90" width="12" height="12" rx="6" fill="#EAD681"/>
<rect x="196" y="90" width="12" height="12" rx="6" stroke="#EAD681"/>
<path d="M221.022 138H222.73V134.164H224.186L226.328 138H228.218L225.88 133.926C226.902 133.59 227.798 132.68 227.798 131.112C227.798 129.474 226.664 128.2 224.606 128.2H221.022V138ZM222.73 132.666V129.74H224.466C225.488 129.74 226.104 130.286 226.104 131.196C226.104 132.078 225.516 132.666 224.494 132.666H222.73ZM235.512 135.06V134.416C235.512 132.288 234.238 130.818 232.208 130.818C230.22 130.818 228.68 132.386 228.68 134.5C228.68 136.656 230.22 138.196 232.222 138.196C233.93 138.196 234.938 137.3 235.344 136.18L233.93 135.746C233.762 136.222 233.202 136.81 232.222 136.81C231.116 136.81 230.36 135.942 230.29 135.06H235.512ZM234.028 133.772H230.304C230.458 132.974 231.088 132.204 232.222 132.204C233.426 132.204 233.986 133.142 234.028 133.772ZM238.949 138.196C240.069 138.196 240.615 137.762 240.895 137.37L241.077 138H242.491V133.408C242.491 131.588 241.133 130.818 239.579 130.818C237.913 130.818 237.031 131.546 236.653 132.932L238.137 133.296C238.249 132.582 238.641 132.162 239.523 132.162C240.419 132.162 240.811 132.638 240.811 133.436V133.52L239.313 133.73C237.087 134.038 236.555 135.018 236.555 136.04C236.555 137.37 237.633 138.196 238.949 138.196ZM239.397 136.838C238.627 136.838 238.165 136.474 238.165 135.942C238.165 135.368 238.557 135.074 239.425 134.948L240.811 134.738V135.55C240.811 136.39 240.153 136.838 239.397 136.838ZM247.108 138.196C248.27 138.196 248.984 137.608 249.334 137.146L249.558 138H250.944V128.2H249.264V131.798C248.886 131.308 248.158 130.818 247.094 130.818C245.106 130.818 243.72 132.456 243.72 134.5C243.72 136.544 245.162 138.196 247.108 138.196ZM247.346 136.684C246.24 136.684 245.4 135.774 245.4 134.5C245.4 133.24 246.24 132.33 247.346 132.33C248.466 132.33 249.278 133.226 249.278 134.5C249.278 135.774 248.466 136.684 247.346 136.684ZM257.331 131.014V134.584C257.331 135.76 256.645 136.362 255.735 136.362C254.895 136.362 254.335 135.97 254.335 134.71V131.014H252.655V134.99C252.655 137.034 253.677 137.93 255.203 137.93C256.267 137.93 256.841 137.538 257.317 136.964L257.331 137.006V137.748C257.331 138.924 256.701 139.554 255.679 139.554C254.797 139.554 254.335 139.134 254.195 138.448L252.627 138.77C252.963 140.016 253.915 140.996 255.679 140.996C257.793 140.996 259.011 139.694 259.011 137.734V131.014H257.331ZM266.059 140.394L267.445 139.54C266.661 138.448 265.877 136.516 265.877 133.828C265.877 131.098 266.633 129.18 267.403 128.102L266.087 127.234C265.247 128.396 264.253 130.706 264.253 133.8C264.253 136.88 265.233 139.218 266.059 140.394ZM270.039 138H271.747V128.2H270.039C269.437 128.606 268.611 128.984 267.995 129.082V130.804C268.597 130.734 269.535 130.44 270.039 130.104V138ZM273.666 138H280.19V136.418H276.102L278.174 134.612C279.308 133.618 280.176 132.694 280.176 131.112C280.176 129.32 278.706 128.004 276.83 128.004C275.038 128.004 273.568 129.194 273.47 131.042L275.052 131.476C275.038 130.314 275.78 129.586 276.83 129.586C277.838 129.586 278.468 130.3 278.468 131.126C278.468 132.134 277.908 132.722 276.97 133.534L273.666 136.418V138ZM282.396 140.38C283.222 139.204 284.202 136.866 284.202 133.786C284.202 130.692 283.208 128.382 282.368 127.22L281.052 128.088C281.822 129.166 282.578 131.084 282.578 133.814C282.578 136.502 281.794 138.434 281.01 139.526L282.396 140.38Z" fill="#7F7F7F"/>
<rect x="196" y="127" width="12" height="12" rx="6" fill="#68D898"/>
<rect x="196" y="127" width="12" height="12" rx="6" stroke="#68D898"/>
<circle cx="84" cy="84" r="63" fill="white"/>
<path d="M75.4829 84.308C78.7169 84.308 81.0709 82.086 81.0709 79.05C81.0709 76.08 79.2229 74.452 77.0009 74.188L80.0589 71.086V68.6H70.5989V71.086H76.8909L73.0849 74.826L74.4489 76.454C74.8009 76.344 75.1529 76.278 75.4829 76.278C77.2429 76.278 78.3869 77.466 78.3869 79.05C78.3869 80.634 77.1769 81.822 75.4829 81.822C73.7889 81.822 72.6009 80.568 72.5349 79.028L70.0709 79.754C70.1369 82.218 72.2709 84.308 75.4829 84.308ZM88.5076 84.308C91.6316 84.308 94.0076 82.218 94.0076 79.05C94.0076 75.882 91.7416 73.858 88.8156 73.858C87.0776 73.858 85.9996 74.672 85.6696 75.112C85.8016 72.538 86.5056 70.778 88.6836 70.778C90.1576 70.778 90.8616 71.592 91.2356 72.868L93.6116 72.164C93.0396 69.942 91.4996 68.292 88.6836 68.292C84.3716 68.292 82.8756 71.702 82.8756 77.026C82.8756 81.536 84.6576 84.308 88.5076 84.308ZM88.5076 81.844C86.8576 81.844 85.7136 80.612 85.7136 79.05C85.7136 77.422 86.9016 76.278 88.5076 76.278C90.1576 76.278 91.3236 77.378 91.3236 79.05C91.3236 80.678 90.1576 81.844 88.5076 81.844ZM60.3452 98.312V97.916C60.3452 96.116 59.2292 94.964 57.5852 94.952C55.9052 94.952 54.6692 96.368 54.6692 98.06C54.6692 99.764 55.7972 101.168 57.5972 101.168C59.0132 101.168 59.8772 100.364 60.1772 99.5L59.3732 99.248C59.1812 99.848 58.5332 100.388 57.5972 100.388C56.4212 100.388 55.6172 99.476 55.5692 98.312H60.3452ZM59.4932 97.556H55.5812C55.7252 96.56 56.4332 95.732 57.5972 95.732C58.6652 95.732 59.4212 96.536 59.4932 97.556ZM61.7423 101H62.6543V97.664C62.6543 96.44 63.4223 95.804 64.2383 95.804C64.9343 95.804 65.5343 96.152 65.5343 97.4V101H66.4463V97.664C66.4463 96.452 67.1903 95.804 68.0183 95.804C68.7743 95.804 69.3263 96.152 69.3263 97.4V101H70.2383V97.052C70.2383 95.588 69.3503 94.952 68.3063 94.952C67.3823 94.952 66.7103 95.348 66.2543 95.972C65.9783 95.36 65.3903 94.952 64.5503 94.952C63.7223 94.952 63.0863 95.288 62.6303 95.924L62.5103 95.12H61.7423V101ZM74.8902 94.964C73.8582 94.964 73.1862 95.444 72.8022 95.996L72.6822 95.12H71.9142V103.52H72.8262V100.148C73.2582 100.736 73.9302 101.168 74.8902 101.168C76.7742 101.168 77.6862 99.596 77.6862 98.072C77.6862 96.56 76.6662 94.964 74.8902 94.964ZM74.7942 95.78C75.9702 95.78 76.7742 96.752 76.7742 98.072C76.7742 99.404 75.9702 100.352 74.7942 100.352C73.6062 100.352 72.8142 99.404 72.8142 98.072C72.8142 96.752 73.6062 95.78 74.7942 95.78ZM79.0744 101H79.9864V92.6H79.0744V101ZM84.3762 101.168C86.2962 101.168 87.4002 99.596 87.4002 98.06C87.4002 96.512 86.2962 94.952 84.3762 94.952C82.4922 94.952 81.3762 96.512 81.3762 98.06C81.3762 99.596 82.4442 101.168 84.3762 101.168ZM84.3762 100.34C83.1402 100.34 82.2882 99.344 82.2882 98.06C82.2882 96.764 83.1402 95.78 84.3762 95.78C85.6242 95.78 86.4882 96.764 86.4882 98.06C86.4882 99.344 85.6242 100.34 84.3762 100.34ZM92.9532 95.12V98.324C92.9532 99.5 92.1492 100.184 91.1772 100.184C90.3372 100.184 89.7132 99.824 89.7132 98.576V95.12H88.8012V98.876C88.8012 100.412 89.8452 101.036 90.9132 101.036C91.8852 101.036 92.4372 100.724 92.9412 100.088L92.9532 100.148V101.036C92.9532 102.116 92.4372 102.848 91.2852 102.848C90.3492 102.848 89.8572 102.392 89.6652 101.588L88.7892 101.792C89.0892 102.884 89.8572 103.664 91.2852 103.664C93.1932 103.664 93.8652 102.308 93.8652 101.012V95.12H92.9532ZM100.845 98.312V97.916C100.845 96.116 99.7292 94.964 98.0852 94.952C96.4052 94.952 95.1692 96.368 95.1692 98.06C95.1692 99.764 96.2972 101.168 98.0972 101.168C99.5132 101.168 100.377 100.364 100.677 99.5L99.8732 99.248C99.6812 99.848 99.0332 100.388 98.0972 100.388C96.9212 100.388 96.1172 99.476 96.0692 98.312H100.845ZM99.9932 97.556H96.0812C96.2252 96.56 96.9332 95.732 98.0972 95.732C99.1652 95.732 99.9212 96.536 99.9932 97.556ZM107.63 98.312V97.916C107.63 96.116 106.514 94.964 104.87 94.952C103.19 94.952 101.954 96.368 101.954 98.06C101.954 99.764 103.082 101.168 104.882 101.168C106.298 101.168 107.162 100.364 107.462 99.5L106.658 99.248C106.466 99.848 105.818 100.388 104.882 100.388C103.706 100.388 102.902 99.476 102.854 98.312H107.63ZM106.778 97.556H102.866C103.01 96.56 103.718 95.732 104.882 95.732C105.95 95.732 106.706 96.536 106.778 97.556ZM111.058 101.168C112.294 101.168 113.326 100.484 113.326 99.404C113.326 98.252 112.438 97.82 111.226 97.604C110.398 97.448 109.762 97.256 109.762 96.668C109.762 96.26 110.038 95.756 111.058 95.756C111.91 95.756 112.306 96.296 112.426 96.908L113.266 96.692C113.014 95.612 112.282 94.952 111.058 94.952C109.894 94.952 108.886 95.552 108.886 96.68C108.886 97.856 109.894 98.24 111.07 98.444C112.366 98.66 112.438 99.08 112.438 99.416C112.438 100.04 111.85 100.364 111.058 100.364C109.942 100.364 109.642 99.656 109.474 99.104L108.646 99.368C108.994 100.58 109.822 101.168 111.058 101.168Z" fill="#0B3551"/>
</svg>
