<svg width="20" height="14" viewBox="0 0 20 14" fill="none" xmlns="http://www.w3.org/2000/svg">
<path fill-rule="evenodd" clip-rule="evenodd" d="M16.125 5.36666C15.5583 2.49167 13.0333 0.333332 10 0.333332C7.59167 0.333332 5.5 1.7 4.45833 3.7C1.95 3.96667 0 6.09166 0 8.66666C0 11.425 2.24167 13.6667 5 13.6667H15.8333C18.1333 13.6667 20 11.8 20 9.5C20 7.3 18.2917 5.51666 16.125 5.36666ZM15.8333 12H5C3.15833 12 1.66667 10.5083 1.66667 8.66667C1.66667 6.95833 2.94167 5.53333 4.63333 5.35833L5.525 5.26667L5.94167 4.475C6.73333 2.95 8.28333 2 10 2C12.1833 2 14.0667 3.55 14.4917 5.69167L14.7417 6.94167L16.0167 7.03333C17.3167 7.11666 18.3333 8.20833 18.3333 9.5C18.3333 10.875 17.2083 12 15.8333 12ZM8.79167 7.83333H6.66667L10 4.5L13.3333 7.83333H11.2083V10.3333H8.79167V7.83333Z" fill="#0B3551"/>
</svg>
